<?xml version="1.0" encoding="UTF-8" standalone="no"?>
<!-- Created with Inkscape (http://www.inkscape.org/) -->

<svg
   width="187mm"
   height="157.44702mm"
   viewBox="0 0 186.99999 157.44702"
   version="1.1"
   id="svg13245"
   xml:space="preserve"
   xmlns="http://www.w3.org/2000/svg"
   xmlns:svg="http://www.w3.org/2000/svg"><defs
     id="defs13242" /><g
     id="layer1"
     transform="translate(-8.1707144,-74.359291)"><path
       id="path18332"
       style="display:inline;fill:#ff6600;stroke:#000000;stroke-width:1069.07;stroke-opacity:0;paint-order:markers fill stroke"
       d="m 154.79097,139.84972 c -0.98652,0.83806 -1.88925,1.72935 -2.88021,2.60299 -1.87312,1.8429 -1.94059,2.33896 -3.58245,4.38672 1.10157,0.25018 -1.99094,2.85043 -1.98437,2.50204 0.28133,-0.96091 -0.93847,1.74602 -1.31038,1.83719 -0.88151,0.49475 -1.46062,1.75663 -2.18328,2.45225 -14.41354,16.31224 -28.34769,30.467 -44.285931,45.31108 -7.40797,6.88505 -14.698025,13.51226 -22.806325,19.57672 -1.10107,0.92747 -4.043074,0.92484 -4.027274,2.55349 -0.04509,1.27247 1.622884,0.9956 2.794144,1.17461 3.74684,0.69279 7.328058,0.54654 11.123858,0.52381 5.05486,-0.10564 9.727579,-0.36065 14.666508,-1.52263 9.84123,-2.19349 19.20385,-6.20099 27.40325,-12.07396 5.36921,-4.12283 9.40412,-8.53716 13.72853,-13.73167 3.49403,-4.18818 6.21376,-9.2636 8.59131,-14.15441 3.76125,-7.75362 5.94386,-15.12544 6.49289,-23.71142 0.27569,-4.25894 -0.53738,-8.32672 -0.58358,-12.59316 -0.0948,-1.56184 1.37114,-2.96955 -0.0271,-3.98851 -0.44338,-0.29342 -0.62304,-1.02862 -1.12963,-1.14514 z" /><path
       id="path18261"
       style="fill:#000000;stroke-width:0.174488"
       d="m 84.03125,75.521484 c -1.355321,-0.01853 -2.846595,-0.0095 -4.332031,0.02344 -2.970935,0.06585 -5.887198,0.226354 -7.640625,0.466797 -12.917753,1.77131 -24.554075,6.553175 -34.580078,14.216797 -5.265499,4.024818 -10.641012,9.513423 -14.552735,14.855464 -1.706369,2.33032 -4.275734,6.46849 -5.564453,8.96875 -0.518895,1.00675 -0.830869,1.57001 -1.013672,1.82227 -0.199659,0.27551 -0.122842,0.20241 -0.380859,0.30469 -0.428559,0.16989 -0.813832,0.40613 -1.042969,0.82812 -0.142735,0.26276 -0.228595,0.69586 0.05469,1.07227 0.0763,0.10138 0.177696,0.14776 0.273437,0.19336 -0.05285,0.17923 -0.103618,0.36984 -0.324219,0.875 -7.8529724,17.98242 -7.7472823,40.05264 0.269532,58.48437 4.66369,10.72243 11.690935,20.27867 20.445312,27.80078 0.261385,0.2246 0.47526,0.42848 0.66211,0.61133 -0.06266,0.0654 -0.106595,0.11494 -0.1875,0.19531 -0.402028,0.3994 -0.958446,0.92391 -1.541016,1.45118 -0.582779,0.52744 -1.192835,1.06203 -1.699219,1.48437 -0.251381,0.20966 -0.490514,0.39684 -0.675781,0.53711 -0.168193,0.12735 -0.291183,0.20931 -0.302734,0.21875 -0.01881,0.001 -0.05143,0.004 -0.13086,-0.004 -0.180014,-0.0171 -0.521374,-0.0852 -1.015625,-0.21093 -4.417397,-1.1242 -7.904695,-3.6525 -10.492187,-7.5625 -2.58703,-3.90931 -4.25067,-9.22021 -4.855469,-15.83789 -0.06258,-0.68487 -0.122004,-1.38563 -0.166016,-1.94336 -0.04401,-0.55774 -0.0721,-0.99178 -0.07422,-1.07422 -0.0056,-0.21565 -0.03235,-0.42238 -0.09375,-0.6211 -0.02901,-0.0937 -0.07665,-0.21691 -0.164062,-0.34375 -0.09151,-0.1328 -0.338636,-0.39843 -0.734375,-0.39843 -0.345838,0 -0.579589,0.19262 -0.703125,0.34179 -0.1041,0.12574 -0.163992,0.2526 -0.203125,0.35157 -0.0814,0.20592 -0.128261,0.42047 -0.171875,0.66601 -0.08816,0.49662 -0.154915,1.14941 -0.207031,1.94922 -0.104259,1.60003 -0.149762,3.76854 -0.144531,6.13867 0.01042,4.74045 0.230834,10.25885 0.671874,13.55274 0.864195,6.45421 2.071533,10.81102 4.166016,14.91797 1.272125,2.49445 2.349309,4.02879 3.976563,5.65234 2.51174,2.506 5.284086,3.99146 8.804687,4.72266 2.215831,0.46021 7.094593,0.26276 9.734375,-0.32422 11.783621,-2.62026 26.183653,-11.44457 44.486328,-27.08399 9.324994,-7.96808 18.672719,-16.88007 30.277349,-28.86133 9.05389,-9.34772 16.77454,-17.74377 26.14843,-28.44531 5.9408,-6.78221 13.52323,-15.76554 19.62305,-23.16211 3.04992,-3.69829 5.72704,-6.99867 7.64648,-9.43164 0.95968,-1.21643 1.72902,-2.21617 2.26563,-2.94726 0.26853,-0.36586 0.47838,-0.66433 0.63086,-0.90039 0.0762,-0.118 0.13759,-0.22082 0.1914,-0.32422 -3.3e-4,6.3e-4 0.0636,-0.20261 0.10547,-0.38282 0.0243,0.11381 0.0469,0.23262 0.11914,0.36329 0.11132,0.20138 0.31793,0.42146 0.65235,0.48632 0.30794,0.0597 0.56428,-0.0504 0.70898,-0.13867 0.14206,-0.0867 0.2449,-0.18739 0.33008,-0.27734 1.17332,-1.23892 6.29449,-7.07508 11.18555,-12.695314 2.44556,-2.810162 4.82188,-5.554343 6.58789,-7.609375 0.88306,-1.027568 1.61309,-1.882632 2.125,-2.490235 0.25566,-0.303464 0.4555,-0.54362 0.59765,-0.71875 0.0719,-0.08868 0.12862,-0.161598 0.17188,-0.21875 0.0188,-0.02492 0.0396,-0.05404 0.0625,-0.08789 0.0101,-0.01437 0.0332,-0.04806 0.0547,-0.08789 a 0.31812308,0.31812308 0 0 0 0.004,-0.0078 c 0.009,-0.01817 0.0258,-0.05046 0.041,-0.08984 v -0.002 c 0.0215,-0.05622 0.0205,-0.06767 0.0254,-0.0918 0.005,-0.0246 0.01,-0.05074 0.0137,-0.07422 0.004,-0.02348 0.007,-0.04419 0.01,-0.06055 0.001,-0.0082 0.003,-0.01445 0.004,-0.01953 3.8e-4,-0.0025 -2.8e-4,-0.0059 0,-0.0078 0,0 0,-0.002 0,-0.002 l 0.004,-0.04492 c 0,0 0,-0.002 0,-0.002 a 0.31812308,0.31812308 0 0 0 0,-0.0039 c -0.003,-0.237765 -0.0817,-0.481248 -0.27539,-0.6875 a 0.31812308,0.31812308 0 0 0 0,-0.002 c -0.16978,-0.180716 -0.37075,-0.266489 -0.52344,-0.316406 -0.30973,-0.101303 -0.63354,-0.13096 -1.0957,-0.167969 -1.79516,-0.14383 -5.01129,0.132668 -6.91797,0.582031 -3.2842,0.774011 -7.16791,3.216422 -10.76758,6.634766 -0.3933,0.373498 -0.79883,0.727385 -1.11719,0.982422 -0.15882,0.127238 -0.29794,0.230824 -0.39258,0.294922 -0.0254,0.01721 -0.0609,0.03589 -0.0918,0.05078 -0.001,6.19e-4 -0.003,0.0013 -0.004,0.002 -0.0924,0.02144 -1.11633,0.254112 -2.67578,0.607422 -1.61226,0.365262 -3.78145,0.856765 -6.11914,1.384765 -2.3409,0.528731 -4.4858,1.02793 -6.06055,1.40625 -0.78717,0.189121 -1.43145,0.345972 -1.89062,0.464844 -0.22959,0.05946 -0.41273,0.110202 -0.55078,0.150391 -0.0674,0.01959 -0.12651,0.03688 -0.1836,0.05664 -0.0271,0.009 -0.0559,0.02052 -0.0859,0.0332 -0.009,0.0026 -0.002,7.32e-4 -0.0137,0.0059 -0.0215,0.0063 -0.0392,0.0082 -0.0625,0.01953 -0.0805,0.03908 -0.13647,0.08979 -0.21289,0.167969 -0.2782,0.284776 -0.27025,0.65322 -0.25195,0.798828 0.0211,0.167981 0.0717,0.306199 0.12109,0.427734 0.10406,0.255792 0.25458,0.52267 0.44727,0.8125 0.23993,0.360914 0.41484,0.674869 0.70117,0.978516 0.29999,0.318123 0.70956,0.548871 1.20508,0.671875 0.96284,0.23901 2.31804,0.2384 5.2832,0.33789 1.45604,0.0489 2.82814,0.10127 3.85938,0.14844 0.24829,0.0113 0.4002,0.0208 0.60547,0.0312 -0.55734,0.60927 -2.18376,2.33428 -3.93555,4.16601 l -3.21289,3.36133 -4.08594,0.59375 c -1.20502,0.17529 -2.32449,0.3477 -3.16211,0.48828 -0.419,0.0703 -0.76681,0.1332 -1.02539,0.1836 -0.12965,0.0253 -0.23808,0.049 -0.32812,0.0703 -0.0485,0.0116 -0.0918,0.0229 -0.13282,0.0352 0.0386,-0.0116 -0.10807,0.0208 -0.24218,0.10546 -0.21873,0.1374 -0.47278,0.39729 -0.5,0.80079 -0.0241,0.35779 0.14309,0.62994 0.26367,0.79296 0.25375,0.34299 0.61195,0.64638 1.18164,1.1211 l 0.9668,0.80664 c 0.14506,0.12084 0.33268,0.18945 0.52148,0.18945 h 2.74805 c 1.18917,0 1.84129,0.0133 2.15429,0.043 0.0619,0.20872 0.13439,0.45681 0.21875,0.75781 0.0687,0.24509 0.15071,0.48778 0.23633,0.70117 0.0758,0.18908 0.13979,0.38426 0.32617,0.60547 0.20397,0.24193 0.45041,0.34092 0.625,0.40039 0.19685,0.0671 0.41332,0.10938 0.64258,0.10938 0.22317,0 0.42008,-0.0574 0.57617,-0.14258 0.1561,-0.0852 0.27111,-0.18558 0.39844,-0.2832 0.28433,-0.21798 0.63009,-0.5277 1.10938,-0.98242 0.95961,-0.91041 2.44199,-2.40469 4.79492,-4.8125 2.19492,-2.24613 3.45745,-3.51346 4.32617,-4.34961 -0.0219,0.26521 -0.0393,0.49996 -0.0644,0.78125 -0.0878,0.9811 -0.10243,1.54908 -0.0527,2.0625 -0.0175,-0.0676 -0.009,-0.1134 -0.0508,-0.1875 -0.12382,-0.21954 -0.30492,-0.36088 -0.55859,-0.41992 -0.36084,-0.084 -0.65894,0.0914 -0.71875,0.125 -0.24788,0.13922 -0.45166,0.32269 -0.73242,0.58593 -0.56873,0.53323 -1.42134,1.42334 -2.69336,2.79883 -3.05625,3.30489 -6.65341,7.13384 -9.50586,10.13281 -1.42621,1.49947 -2.66727,2.79083 -3.5586,3.70508 -0.29313,0.30067 -0.48229,0.4906 -0.68945,0.69922 -0.16552,-0.36871 -0.34347,-0.77643 -0.53906,-1.27734 -2.46446,-6.31126 -5.76996,-12.29627 -9.75,-17.65625 C 129.3573,88.573254 109.57593,77.510568 87.550781,75.666016 c -0.943284,-0.079 -2.16421,-0.126002 -3.519531,-0.144532 z m -1.253906,1.91211 c 3.594782,0.06039 7.200147,0.337291 10.216797,0.818359 10.190429,1.62509 20.030809,5.41834 28.644529,11.042969 13.2999,8.684635 23.17186,20.841888 29.04297,35.761718 l 0.7832,1.98828 -7.91601,7.97852 c -9.34921,9.42609 -11.34834,11.40351 -17.14649,16.93945 -10.18741,9.72671 -20.0212,18.50886 -28.607418,25.55469 -0.899143,0.73783 -1.68264,1.36818 -2.341797,1.89258 0.81507,-4.54952 1.107729,-7.42668 1.013672,-11.50977 -0.155991,-6.76727 -1.113405,-11.24672 -4.939453,-23.19336 -1.700903,-5.311 -2.784871,-9.02416 -3.203125,-10.94336 l -0.148438,-0.67969 0.554688,-0.59765 a 0.31812308,0.31812308 0 0 0 0.002,-0.008 c 2.839737,-3.09018 4.868774,-6.92542 5.886719,-11.11329 0.362497,-1.49297 0.425506,-2.2355 0.376953,-4.75976 -0.0075,-0.39011 -0.04421,-0.53339 -0.05859,-0.85547 0.123979,0.37116 0.308042,0.78035 0.396484,1.11523 1.251796,4.73989 1.012086,9.87803 -0.769531,15.58985 -0.252889,0.8107 -0.407209,1.36585 -0.421875,1.86133 -0.0061,0.22146 0.0063,0.61521 0.31836,0.92187 0.185532,0.18254 0.410886,0.2671 0.638671,0.27734 0.1964,0.008 0.361834,-0.0408 0.478516,-0.0859 0.345396,-0.13374 0.474064,-0.35151 0.548828,-0.43946 0.124715,-0.14671 0.257437,-0.32251 0.404297,-0.52929 0.294278,-0.41437 0.647033,-0.95389 1.019531,-1.55664 0.744974,-1.20545 1.564688,-2.64845 2.103516,-3.76368 3.419433,-7.0773 3.260903,-13.46097 -0.621094,-18.43359 -0.495705,-0.63497 -1.12156,-1.25985 -1.769531,-1.85742 0.442413,0.13107 0.922093,0.25598 1.28125,0.38086 6.897378,2.39824 12.074958,7.57966 14.753908,14.79687 1.03712,2.79405 1.49321,4.79071 1.97461,8.64844 0.0791,0.63382 0.15571,1.10929 0.42773,1.5293 0.0674,0.1041 0.18589,0.25383 0.37695,0.36133 0.24401,0.13722 0.5212,0.16894 0.80665,0.0488 0.42209,-0.17761 0.56035,-0.55608 0.62695,-0.73828 0.0982,-0.26839 0.15811,-0.58068 0.23633,-1.00976 0.0789,-0.43275 0.16192,-0.96323 0.24414,-1.53907 0.1645,-1.15229 0.32177,-2.48378 0.40625,-3.54882 0.21411,-2.69926 -0.008,-7.53145 -0.5,-9.52149 -1.22129,-4.94075 -3.52628,-8.38458 -7.27735,-10.77539 -3.27087,-2.08475 -7.42276,-3.02345 -12.396481,-2.95703 7.293911,-3.45844 18.325501,-3.81383 29.296871,-0.6543 0.43773,0.12606 0.84858,0.22893 1.17969,0.29883 0.16688,0.0352 0.31375,0.0618 0.44336,0.0781 a 0.31812308,0.31812308 0 0 0 0.002,0 c 0.0596,0.007 0.12815,0.0151 0.21094,0.0156 -0.052,-2.7e-4 0.0226,0.0163 0.13672,0.006 0.11416,-0.0104 0.22806,-0.0564 0.35938,-0.13867 0.15012,-0.0941 0.35035,-0.26714 0.43945,-0.55274 0.0937,-0.30042 0.0245,-0.57393 -0.084,-0.77148 -0.17688,-0.32225 -0.42962,-0.49671 -0.69531,-0.67578 -0.56018,-0.37755 -1.44245,-0.83291 -2.83008,-1.50781 -4.94444,-2.404833 -9.21922,-3.936863 -13.66992,-4.890628 -1.60197,-0.343303 -2.53684,-0.414845 -5.58594,-0.421875 -3.21668,-0.007 -3.91143,0.05236 -5.34765,0.429687 -1.81616,0.477136 -3.741049,1.371574 -5.281252,2.373047 0.288538,-1.286617 0.349517,-2.163377 0.289063,-4.458984 -0.06683,-2.537766 -0.153286,-3.14387 -0.626953,-4.59375 -1.027163,-3.14404 -2.521593,-5.557687 -4.871094,-7.867188 -0.492234,-0.483856 -0.890026,-0.843987 -1.230469,-1.099609 -0.168564,-0.12657 -0.330985,-0.235177 -0.513672,-0.318359 -0.153963,-0.07009 -0.493276,-0.19882 -0.865234,-0.04492 -0.22636,0.09372 -0.381028,0.253175 -0.476563,0.447265 -0.08131,0.165086 -0.101975,0.325636 -0.105468,0.4375 -0.0063,0.226253 0.04152,0.420456 0.0957,0.605469 0.112217,0.382993 0.304557,0.832213 0.583984,1.408203 0.833052,1.717223 1.491024,3.617366 2.052734,5.955078 0.37,1.539886 0.42094,2.148996 0.513672,5.896485 0.0512,2.07173 0.03397,3.274089 -0.01953,4.289062 -1.904782,-5.617863 -5.970662,-9.57054 -11.472656,-11.03125 -1.372739,-0.364444 -3.404701,-0.514647 -5.246094,-0.511719 -0.921398,0.001 -1.787261,0.04358 -2.494141,0.132813 -0.353663,0.04467 -0.668578,0.101563 -0.947265,0.179687 -0.257835,0.07226 -0.557642,0.160802 -0.820313,0.429688 -0.139557,0.142864 -0.217577,0.318623 -0.259765,0.509766 -0.04219,0.191142 -0.04819,0.403978 0.04297,0.611328 0.141191,0.321145 0.391302,0.493477 0.578125,0.605468 0.403613,0.241952 0.917248,0.408698 1.603516,0.583985 5.779105,1.476139 10.934916,5.267113 14.291016,10.365233 -1.948947,-1.182405 -3.798578,-2.118261 -5.669922,-2.605468 -5.726093,-1.490774 -11.318426,-0.533136 -16.191407,2.779298 -0.856916,0.58249 -2.007787,1.60852 -2.992187,2.57422 -0.492329,0.48297 -0.937202,0.94596 -1.273437,1.33789 -0.168293,0.19616 -0.309217,0.37523 -0.423829,0.54492 -0.06437,0.0953 -0.282332,0.33295 -0.273437,0.75391 0.0023,0.11476 5.56e-4,0.48563 0.285156,0.78515 0.174176,0.18328 0.384605,0.26894 0.595703,0.29102 0.177286,0.0185 0.329087,-0.0102 0.439453,-0.0391 0.449651,-0.11666 0.871875,-0.36666 1.666016,-0.80079 4.543808,-2.48388 10.412931,-3.59703 15.625,-2.96093 0.0818,0.01 0.261754,0.0511 0.361328,0.0664 -1.25654,0.20636 -2.455998,0.50756 -3.679687,1.09375 -3.262385,1.5628 -5.539041,3.94883 -7.28711,7.58985 -0.703352,1.46501 -1.557189,4.04995 -1.810547,5.51172 -0.205646,-0.11453 -0.401953,-0.22027 -0.640625,-0.36329 -3.456526,-2.07124 -6.251696,-2.96573 -9.748047,-3.0957 -2.942596,-0.10938 -4.757144,0.26608 -7.24414,1.50586 -2.070681,1.03225 -3.607531,2.23201 -5.496094,4.26758 -0.723721,0.78006 -1.649284,1.99002 -2.482422,3.17969 -0.204861,0.29252 -0.297124,0.48706 -0.453125,0.73828 0.222922,-1.40089 0.529482,-2.97572 0.933594,-4.32617 2.013113,-6.72749 7.297872,-14.38537 13.876953,-20.007816 0.69395,-0.593063 1.16964,-1.042387 1.472656,-1.451172 0.120243,-0.16222 0.349699,-0.450729 0.3125,-0.890625 -0.02652,-0.312803 -0.181268,-0.561615 -0.455078,-0.720703 -0.211506,-0.122889 -0.424623,-0.138672 -0.552734,-0.138672 -0.361308,0 -0.555367,0.125368 -0.746094,0.208984 -0.232461,0.101876 -0.509075,0.237332 -0.828125,0.404297 -0.638088,0.333925 -1.443083,0.790539 -2.310547,1.302735 -1.73525,1.024586 -3.707911,2.269052 -5.019531,3.214842 -8.509057,6.13575 -12.972261,12.89591 -12.810547,19.89258 8.42e-4,0.0349 0.0013,0.0568 0.002,0.0898 -0.177592,-0.16914 -0.329973,-0.31224 -0.537109,-0.51172 -3.030303,-2.91832 -6.018167,-4.48995 -9.845703,-5.15625 -0.884173,-0.15391 -2.108703,-0.21326 -3.279297,-0.20507 -0.689075,0.005 -1.184079,0.0809 -1.695313,0.15039 0.76676,-1.54194 1.793279,-3.3631 3.103516,-5.45313 C 32.99592,92.386785 51.533639,80.598911 72.613281,77.912109 75.594153,77.532171 79.182765,77.37318 82.777344,77.433594 Z m 107.519536,7.808594 c 0.45149,-0.01698 0.74721,0.0052 1.08984,0.01758 -0.52189,0.60188 -1.25186,1.440539 -2.15625,2.474609 -1.84077,2.104669 -4.36101,4.97713 -7.11914,8.109375 -5.00013,5.67837 -7.39841,8.39537 -8.61328,9.59766 0.007,-0.0808 0.008,-0.0978 0.0176,-0.19532 0.10327,-1.08904 0.15595,-1.76423 0.13477,-2.26171 -0.0103,-0.23738 -0.0301,-0.4833 -0.1582,-0.74219 -0.0885,-0.17883 -0.22545,-0.30307 -0.37891,-0.40039 -0.15346,-0.0973 -0.32366,-0.16993 -0.52539,-0.16992 -0.13285,0 -0.23794,0.0155 -0.33008,0.0566 -0.0921,0.0411 -0.15721,0.0957 -0.0957,0.0605 -0.0516,0.0295 -0.0908,0.0575 -0.11328,0.0742 -0.0588,0.0435 -0.10928,0.0869 -0.16211,0.13281 -0.11038,0.0958 -0.24301,0.21974 -0.4082,0.37696 -0.33057,0.31457 -0.7837,0.7599 -1.33008,1.30859 -1.09239,1.09698 -2.56011,2.6048 -4.14453,4.26367 -3.20571,3.35629 -4.85998,5.04564 -5.55274,5.56055 -0.033,-0.0915 -0.0636,-0.17048 -0.10351,-0.30274 -0.0966,-0.32055 -0.20401,-0.63421 -0.30664,-0.89648 -0.0511,-0.13037 -0.1018,-0.25062 -0.15235,-0.35742 -0.0423,-0.0893 -0.0951,-0.2054 -0.20898,-0.3418 -0.23752,-0.28439 -0.54464,-0.34452 -0.68164,-0.375 -0.18972,-0.0422 -0.39605,-0.065 -0.64844,-0.084 -0.50647,-0.0383 -1.21139,-0.0551 -2.20313,-0.0566 l -2.42382,-0.004 -0.3086,-0.26367 c 0.7791,-0.12476 1.7563,-0.27696 2.86328,-0.43945 l 4.34571,-0.63868 c 0.17798,-0.0262 0.34641,-0.11212 0.4707,-0.24218 a 0.31812308,0.31812308 0 0 0 0,-0.002 l 4.25977,-4.47265 c 1.1756,-1.23477 2.24956,-2.3911 3.0371,-3.26563 0.39378,-0.43727 0.71695,-0.80388 0.94922,-1.08008 0.11658,-0.13863 0.2086,-0.2544 0.28321,-0.35351 0.0336,-0.0446 0.0711,-0.0916 0.10937,-0.15235 -0.0216,0.0343 0.012,0.002 0.0566,-0.0781 0.0443,-0.0796 0.0676,-0.169123 0.0859,-0.289063 v -0.002 c 0.0312,-0.207077 0.009,-0.456356 -0.14453,-0.695313 -0.14118,-0.219952 -0.34085,-0.34333 -0.5,-0.414062 -0.30732,-0.136562 -0.62495,-0.177592 -1.06836,-0.222657 -0.89947,-0.09141 -2.38793,-0.142731 -4.98633,-0.207031 -2.15189,-0.05331 -4.45063,-0.149133 -4.85937,-0.189453 -0.46484,-0.04587 -0.60252,-0.09433 -0.60157,-0.09375 0.0152,0.0092 -0.15346,-0.147782 -0.44922,-0.554687 0.44034,-0.107254 0.9669,-0.23219 1.66797,-0.396485 1.60878,-0.377002 3.81409,-0.884128 6.22266,-1.425781 l 8.76367,-1.970703 c 0.14196,-0.03165 0.27683,-0.101558 0.38281,-0.201172 a 0.31812308,0.31812308 0 0 0 0,-0.002 l 1.19532,-1.132813 c 3.7674,-3.570543 7.19888,-5.725901 10.08984,-6.464843 1.23215,-0.314937 3.17777,-0.538143 4.70899,-0.595703 z M 79.302734,110.46484 c -2.472507,2.59179 -4.152746,5.98937 -4.58789,9.86914 -0.113164,1.00902 -0.113739,2.60526 -0.03906,4.20899 -0.09333,-0.11647 -0.186257,-0.23228 -0.308593,-0.36524 -0.326758,-0.35508 -0.764848,-0.78673 -1.267579,-1.25781 -1.005858,-0.94252 -2.267869,-2.03445 -3.367187,-2.87695 -0.414687,-0.31781 -0.795938,-0.62746 -1.060547,-0.85938 -0.0061,-0.005 -0.0079,-0.009 -0.01367,-0.0137 0.08605,-0.13616 0.172233,-0.27396 0.287109,-0.43164 2.565134,-3.52087 6.130991,-6.31969 10.357422,-8.27344 z m 9.958985,2.58594 c -0.0065,0.0731 -0.004,0.0965 -0.01172,0.17774 -0.141169,1.487 -0.323701,3.12322 -0.46875,4.12109 -0.345627,2.37751 -1.001749,5.2506 -1.722656,7.86133 -0.02364,-0.49822 -0.06049,-0.91709 -0.07227,-1.45508 -0.07671,-3.50714 0.03705,-4.54587 0.773438,-7.02344 0.204193,-0.68702 0.84876,-2.25563 1.484375,-3.64258 0.0066,-0.0143 0.01104,-0.0248 0.01758,-0.0391 z m -72.0625,5.74219 c 1.956118,0.39016 -0.506111,-0.16421 1.914062,0.40234 3.475155,0.82061 7.116955,2.58395 10.736328,5.23438 0.521947,0.38221 1.198955,0.96455 1.84961,1.49804 -0.06407,-0.0205 -0.132092,-0.0533 -0.195313,-0.0723 -1.442706,-0.43241 -2.08986,-0.51172 -4.517578,-0.52539 -3.152016,-0.0177 -4.38629,0.23767 -6.783203,1.39062 -3.409681,1.6401 -6.205031,4.59645 -7.978516,8.31836 0.990292,-5.38737 2.543417,-10.64979 4.628907,-15.45508 0.170971,-0.39393 0.282725,-0.66678 0.345703,-0.79101 z m 64.564453,1.49609 c -0.519179,3.37635 -0.515482,7.3184 0.130859,11.54688 0.43454,2.84275 0.963184,5.22946 2.433594,10.98633 3.727172,14.59244 4.033881,19.64555 1.677734,27.21289 -3.019375,9.69742 -10.283223,19.84057 -21.511718,29.88867 -0.01593,0.0143 -0.02553,0.0233 -0.04102,0.0371 0.656447,-3.84379 1.39074,-9.6716 1.636719,-13.49219 1.067095,-16.57455 -1.662345,-30.73198 -7.921875,-40.44141 -0.4959,-0.76921 -1.131315,-1.92516 -1.326172,-2.3789 -1.911707,-4.45154 -5.116121,-8.1812 -8.982422,-10.61524 5.003332,1.59243 9.908983,5.17791 13.708984,10.19532 0.266748,0.35222 0.530128,0.65735 0.777344,0.89453 0.123837,0.11882 0.246979,0.22208 0.380859,0.3125 0.09201,0.0622 0.317791,0.22265 0.644532,0.22265 0.212067,0 0.436683,-0.0497 0.640625,-0.17187 0.225458,-0.13513 0.492751,-0.42115 0.486328,-0.8418 a 0.31812308,0.31812308 0 0 0 0,-0.008 c -0.0059,-0.27351 -0.08208,-0.41371 -0.123047,-0.53125 -0.05609,-0.16113 -0.12984,-0.34915 -0.21875,-0.56836 -0.178034,-0.43899 -0.416471,-0.99303 -0.681641,-1.58203 -0.530186,-1.17761 -1.153067,-2.48108 -1.585937,-3.26367 -3.137486,-5.67234 -7.045947,-9.24041 -11.738281,-10.53907 -1.98333,-0.5489 -4.566033,-0.49079 -6.876953,-0.01 3.788,-3.13374 7.728352,-4.86945 12.570312,-5.35547 4.969769,-0.49885 11.384307,1.01304 16.435547,3.92383 0.673573,0.38815 1.060359,0.62372 1.5,0.73242 0.107085,0.0265 0.258042,0.055 0.433594,0.0332 0.204989,-0.0254 0.409799,-0.11064 0.580078,-0.29101 0.09087,1.0966 0.203731,2.12854 0.355469,2.82422 0.102141,0.46832 0.176774,0.79416 0.330078,1.09961 0.07843,0.15619 0.198655,0.33895 0.396484,0.47851 0.210794,0.14866 0.43981,0.19922 0.640625,0.19922 0.323054,0 0.587474,-0.14905 0.775391,-0.34375 0.160648,-0.16644 0.264015,-0.34946 0.357422,-0.54297 0.190362,-0.39434 0.378066,-0.9307 0.652343,-1.76953 0.839371,-2.56711 1.77126,-4.78294 2.865235,-6.81445 0.172914,-0.3211 0.396489,-0.68069 0.597656,-1.02735 z m -51.892578,10.70508 c 0.299899,-0.007 0.465631,0.017 0.699218,0.0234 -1.988879,0.92213 -3.784522,2.12017 -5.474609,3.7539 -5.253106,5.07796 -7.09871,12.2651 -5.126953,19.78321 0.164548,0.62743 0.33238,1.11361 0.580078,1.49609 0.106345,0.16421 0.305214,0.44499 0.685547,0.55274 0.239302,0.0678 0.485219,0.0466 0.714844,-0.0801 0.198577,-0.10956 0.321334,-0.26957 0.394531,-0.39258 0.07999,-0.13434 0.107025,-0.25923 0.111328,-0.27539 0.01665,-0.0626 0.0294,-0.12261 0.04102,-0.18359 0.02381,-0.12507 0.04583,-0.27065 0.06836,-0.43946 0.04503,-0.33738 0.08927,-0.76251 0.125,-1.20703 0.439342,-5.46809 2.567616,-10.56065 5.998047,-14.67383 -0.811946,2.05101 -1.132813,4.11179 -0.966797,6.38282 0.180252,2.46561 0.711687,4.23065 1.970703,6.57617 0.7771,1.44772 1.946962,3.1121 3.042969,4.44922 0.547991,0.66854 1.074278,1.25381 1.541016,1.69335 0.232658,0.2191 0.451524,0.40417 0.671875,0.55274 0.195047,0.13152 0.462686,0.31055 0.849609,0.31055 -0.07108,0 0.01889,0.0194 0.146484,0.0195 0.127596,8e-5 0.281891,-0.0394 0.457032,-0.13282 0.27349,-0.14572 0.408576,-0.36336 0.458984,-0.63476 0.03482,-0.18792 0.01023,-0.34896 -0.0098,-0.44727 v -0.002 c -0.08533,-0.42918 -0.292087,-0.90235 -0.707031,-2.00195 -1.074471,-2.84734 -1.367832,-4.53257 -1.457031,-8.36914 -0.04558,-1.95794 0.04983,-3.26191 0.212891,-4.4961 0.364113,1.6012 0.930278,3.08872 1.859374,4.67578 1.434492,2.45037 3.931481,4.90321 6.81836,6.75977 0.779894,0.50155 2.036789,1.1882 3.173828,1.76758 0.568846,0.28984 1.104095,0.5489 1.533203,0.74219 0.214558,0.0967 0.403138,0.17679 0.566406,0.23828 0.115118,0.0434 0.274971,0.13476 0.56836,0.13476 0.234114,0 0.64824,-0.051 0.923828,-0.41015 0.284812,-0.37119 0.211937,-0.80596 0.121094,-1.06055 -0.171113,-0.47966 -0.500324,-0.91193 -1.013672,-1.56055 -3.884623,-4.90822 -6.80833,-10.7052 -8.492188,-16.84375 -0.298297,-1.08743 -0.596678,-2.34513 -0.802734,-3.33398 0.502341,0.38422 1.027114,0.7878 1.691406,1.34179 1.733374,1.44555 3.826417,3.31365 5.332031,4.8086 3.364919,3.34109 5.174887,5.56158 6.023438,7.26953 1.890713,3.80566 2.977795,8.3923 3.078125,13.04102 0.09894,4.58705 -0.566248,8.80261 -2.34375,14.74023 -3.1465,10.51066 -8.204686,19.92415 -14.572266,27.1543 -0.938552,1.06565 -1.450679,1.62395 -1.753906,1.91797 -0.223087,-0.21189 -0.524324,-0.50247 -0.896484,-0.85938 -0.761768,-0.73057 -1.790786,-1.71961 -2.898438,-2.79101 -4.439863,-4.29459 -6.725511,-6.94662 -9.648437,-11.18946 -7.390387,-10.7277 -11.621532,-22.37129 -12.828125,-35.29883 -0.324509,-3.47641 -0.338567,-9.7692 -0.0332,-13.02148 0.118166,-1.25854 0.320234,-2.51149 0.503906,-3.76563 0.107761,0.12276 0.235252,0.24214 0.423828,0.29297 0.328038,0.0885 0.606462,-0.014 0.755859,-0.0762 0.175044,-0.073 0.33626,-0.16708 0.507813,-0.28125 0.343998,-0.22893 0.747395,-0.54994 1.248047,-0.97656 3.268851,-2.78548 7.177574,-4.65186 11.261718,-5.38477 0.777906,-0.13959 2.370495,-0.25358 3.865235,-0.28906 z m 125.523436,6.83203 c -0.98906,0.48546 -3.22042,3.27181 -2.74219,2.24805 0.0182,0.0462 0.0703,0.15299 0.0781,0.16016 -0.79764,0.89903 -1.5071,1.69774 -3.27735,3.76562 -19.03989,22.24115 -39.64805,43.69728 -55.982417,58.29102 -7.728376,6.90479 -16.071193,13.66948 -21.455078,17.40429 -0.391364,0.27149 -0.721209,0.52982 -0.976563,0.76953 -0.126164,0.11845 -0.239901,0.23663 -0.339843,0.37305 -0.02148,0.0293 -0.104949,0.11194 -0.167969,0.25391 -0.06302,0.14197 -0.08684,0.33349 -0.04687,0.54687 0.05585,0.29813 0.238233,0.49734 0.373047,0.60742 0.135165,0.11031 0.273872,0.17996 0.404297,0.23633 0.268863,0.1162 0.578411,0.19964 0.943359,0.27149 1.626045,0.32008 5.536779,0.78352 7.798828,0.93554 2.960823,0.19881 6.755007,0.20211 9.730469,0.006 18.013295,-1.18872 34.538275,-8.72662 46.986325,-21.43554 3.08735,-3.15203 4.64157,-4.96692 6.94141,-8.1211 9.35754,-12.83369 14.18917,-28.44316 13.79687,-44.55859 -0.0497,-2.04463 -0.24259,-4.62361 -0.4707,-6.78125 -0.11405,-1.07866 -0.23553,-2.05067 -0.35742,-2.80469 -0.061,-0.37687 -0.12289,-0.69809 -0.18555,-0.96289 a 0.31812308,0.31812308 0 0 0 0,-0.002 c -0.0571,-0.24134 -0.0955,-0.46789 -0.27343,-0.73242 -0.09,-0.13393 -0.26865,-0.28408 -0.52149,-0.36329 -0.0128,-0.0121 -0.0129,-0.0313 -0.0273,-0.041 -0.0823,-0.0552 -0.16661,-0.0672 -0.22852,-0.0664 z m -0.64258,2.96875 c 0.0501,0.29809 0.0977,0.56201 0.15039,0.91211 0.48586,3.22589 0.70617,12.68525 0.36914,16.00977 -0.90741,8.95107 -2.85217,16.16186 -6.38867,23.73047 -5.37941,11.51277 -13.62707,21.19594 -24.09179,28.28515 -10.37281,7.02695 -21.89434,11.00559 -34.736332,11.98633 -2.06384,0.15766 -7.277657,0.18829 -9.494141,0.0547 -1.258901,-0.0759 -5.401569,-0.52235 -6.943359,-0.75196 -0.04598,-0.007 -0.06095,-0.0147 -0.101563,-0.0215 0.430481,-0.31241 0.875812,-0.63711 1.423828,-1.0332 17.76099,-12.83721 41.997877,-36.2017 67.882817,-65.4043 3.27929,-3.69961 9.93568,-11.38371 11.92968,-13.76758 z" /><path
       style="display:inline;fill:#ff6600;stroke:#000000;stroke-width:1069.07;stroke-opacity:0;paint-order:markers fill stroke"
       d="m 95.17457,178.58603 c 0.72842,-2.58037 0.67482,-14.96163 -0.0817,-18.86534 -0.41616,-2.14755 -2.28093,-8.96094 -4.14393,-15.14084 l -3.38728,-11.23616 1.72388,-2.20867 c 2.93633,-3.76208 5.01179,-9.17786 5.25098,-13.70216 l 0.21388,-4.0454 0.75334,2.26288 c 1.14317,3.43384 1.17251,10.264 0.064,14.89392 -0.53581,2.23785 -0.75408,4.20296 -0.48504,4.36687 0.26902,0.16394 1.15231,-0.7924 1.96286,-2.12516 5.61212,-9.22806 5.82357,-17.14772 0.61223,-22.93088 -1.76166,-1.95495 -1.7703,-1.98954 -0.39093,-1.56387 6.07187,1.87372 12.18135,6.93375 15.01877,12.43891 1.0098,1.95921 2.30056,5.75452 2.86836,8.43404 0.56779,2.67954 1.22243,4.87188 1.45475,4.87188 1.57319,0 1.49833,-14.11899 -0.0976,-18.40365 -2.36189,-6.34116 -7.48121,-9.77075 -15.53642,-10.40831 l -4.64964,-0.36801 2.23969,-1.0023 c 6.28547,-2.81286 15.49801,-3.37436 24.57396,-1.49772 6.64727,1.37443 7.50219,1.40536 5.94497,0.21502 -1.62714,-1.24378 -6.71423,-3.456702 -11.64501,-5.065662 -5.59528,-1.82578 -14.37272,-1.93653 -18.0977,-0.22838 -1.34212,0.61544 -2.53969,1.119 -2.66128,1.119 -0.12159,0 -0.26917,-1.97292 -0.32794,-4.38428 -0.11744,-4.81909 -1.47415,-8.42124 -4.47442,-11.88 -2.5155,-2.89992 -3.42615,-2.44068 -1.98916,1.00309 1.70653,4.08966 2.67813,10.27176 2.30075,14.63921 l -0.32259,3.733432 -0.73655,-2.262882 c -1.60171,-4.92083 -4.74236,-8.56176 -8.8525,-10.26266 -3.68511,-1.525 -11.53271,-1.70066 -11.49935,-0.25739 0.006,0.2694 1.35781,0.92184 3.00351,1.44984 1.64571,0.52803 4.21983,1.72985 5.72029,2.67073 2.63573,1.65275 7.93609,6.87668 7.95844,7.843662 0.006,0.26027 -1.46857,-0.20725 -3.27687,-1.038942 -2.74008,-1.26024 -4.08893,-1.51421 -8.09666,-1.5244 -4.10873,-0.0106 -5.25667,0.21182 -7.88471,1.52688 -3.59763,1.800252 -8.44624,6.129422 -7.30643,6.523682 0.41341,0.143 2.20303,-0.39818 3.97694,-1.20259 3.89177,-1.76485 10.20921,-2.75524 13.63949,-2.13828 l 2.50254,0.45008 -1.96953,0.45302 c -2.91355,0.67016 -5.65892,2.23867 -7.6433,4.36682 -1.84164,1.97506 -4.51543,7.39999 -4.48561,9.10097 0.0221,1.25939 0.10903,1.27352 -3.47823,-0.5657 -4.45436,-2.28381 -10.59135,-2.50688 -14.45568,-0.52546 -2.93983,1.50735 -5.07641,3.36235 -7.60988,6.60688 l -1.54607,1.98001 0.29746,-2.54572 c 0.66857,-5.72187 4.68879,-12.60353 11.64727,-19.93733 2.58103,-2.720262 4.53073,-5.104312 4.33266,-5.297912 -0.5516,-0.53911 -7.2397,3.440672 -11.1351,6.626012 -6.36843,5.20761 -9.60528,10.28214 -10.18413,15.96607 l -0.28451,2.79366 -2.59511,-2.13728 c -3.33826,-2.74931 -5.5421,-3.64148 -10.02726,-4.05942 l -3.634,-0.33861 1.39126,-2.66957 c 2.39636,-4.59817 8.22703,-12.13977 12.64846,-16.360012 19.60196,-18.7099 48.32476,-24.75923 73.96003,-15.57673 19.34888,6.9307 35.08478,21.725122 43.77888,41.159582 l 2.07579,4.64011 -12.67438,12.72857 c -16.5804,16.65129 -42.36551,40.12057 -44.11825,40.15587 -0.26952,0.006 -0.32835,-0.56293 -0.13073,-1.26302 z"
       id="path18334" /><path
       style="fill:#ff6600;stroke:#000000;stroke-width:1069.07;stroke-opacity:0;paint-order:markers fill stroke"
       d="m 63.91655,199.84888 c 1.18001,-4.53285 1.54104,-10.85432 1.27091,-22.25284 -0.3739,-15.77768 -1.23423,-19.55842 -6.87429,-30.20959 -4.5095,-8.51612 -5.56762,-9.9876 -9.22181,-12.82425 -3.46847,-2.69248 -2.52545,-2.85406 2.42183,-0.415 2.45285,1.2093 5.06468,3.20228 7.88451,6.01633 2.31915,2.31442 4.36516,4.05601 4.54668,3.8702 0.67014,-0.68602 -3.99115,-8.93252 -6.56962,-11.62265 -3.61955,-3.77629 -7.47902,-5.39885 -11.88871,-4.99816 -3.24494,0.29485 -3.29052,0.2794 -2.34316,-0.79486 1.5933,-1.80671 7.56416,-4.46286 11.50633,-5.11861 4.63938,-0.77173 10.78264,0.34156 15.93795,2.88828 4.02162,1.98667 3.88634,1.95103 3.87496,1.02118 -0.005,-0.38894 -1.49325,-2.00477 -3.30775,-3.59076 l -3.29911,-2.88359 2.78649,-2.85242 c 2.48676,-2.54559 8.04706,-6.35249 9.29882,-6.36651 0.26095,-0.003 -0.17549,0.78893 -0.96987,1.75966 -2.05135,2.50677 -2.97953,4.58822 -3.56472,7.99396 -0.66188,3.85207 0.0983,10.60681 1.19374,10.60681 0.43513,0 0.78467,-0.28073 0.77674,-0.62379 -0.018,-0.77949 4.12111,-10.12481 4.48436,-10.12481 0.14634,0 0.18379,1.97295 0.0832,4.38431 -0.19741,4.73395 0.54719,9.27595 3.73283,22.76999 2.10809,8.92966 2.64034,15.83256 1.59315,20.66186 -0.89359,4.12094 -4.76656,12.39528 -8.00552,17.10323 -2.95644,4.29733 -12.71075,15.065 -14.55011,16.06171 -0.89712,0.48615 -1.02492,0.41251 -0.79787,-0.45968 z"
       id="path18336" /><path
       style="fill:#ff6600;fill-opacity:1;stroke:#000000;stroke-width:1069.07;stroke-opacity:0;paint-order:markers fill stroke"
       d="m 32.25356,200.03072 c -2.8967,-2.98778 -6.63457,-7.41225 -8.30636,-9.83207 -13.88971,-20.10482 -17.09485,-44.45233 -8.86742,-67.36051 1.68031,-4.67863 1.69026,-4.69117 3.44133,-4.33747 3.73289,0.75398 9.86227,4.03172 14.24063,7.61526 0.24479,0.20037 -1.73312,0.25011 -4.39535,0.11054 -5.86291,-0.30734 -8.75307,0.62119 -12.01601,3.86043 -1.86831,1.85473 -4.44441,5.95723 -4.41943,7.03803 0.0171,0.74123 1.36188,0.17745 3.25449,-1.36443 3.5924,-2.92667 8.24898,-4.71184 12.97379,-4.97369 l 4.26833,-0.23657 -2.39365,1.24529 c -3.53069,1.83682 -7.22224,5.79885 -8.81336,9.45909 -1.10765,2.54805 -1.38469,4.11798 -1.31982,7.47893 0.1439,7.45529 1.58148,9.85205 2.4667,4.11249 0.70636,-4.57985 2.4094,-9.018 4.68696,-12.2143 2.11087,-2.96238 2.82523,-3.1877 1.87914,-0.59272 -1.09141,2.9936 -0.572,8.49352 1.10735,11.72535 1.7689,3.40421 5.30786,7.62924 5.89438,7.0371 0.22274,-0.2249 -0.0467,-1.89629 -0.59885,-3.71427 -1.04579,-3.44348 -1.42853,-11.17209 -0.67831,-13.69687 0.38342,-1.29035 0.42926,-1.23809 0.52311,0.59608 0.15113,2.95404 2.83147,7.63973 5.74045,10.0353 3.28093,2.70187 8.44878,5.46483 8.70096,4.65196 0.10475,-0.33769 -0.87627,-2.19623 -2.18005,-4.13007 -4.01515,-5.95559 -8.37854,-16.54183 -7.70845,-18.70189 0.31095,-1.00232 12.78677,11.49059 14.01074,14.02993 1.87942,3.89922 2.72658,7.78872 2.85661,13.11534 0.30642,12.5526 -6.92538,30.49606 -16.92669,41.99829 l -2.15448,2.47783 z"
       id="path18338" /><path
       style="fill:#ff7f2a;stroke:#000000;stroke-width:267.266;stroke-opacity:0;paint-order:markers fill stroke"
       d="m 86.46122,127.91108 c -0.0688,-0.64625 -0.13398,-2.79419 -0.1449,-4.77322 -0.0185,-3.3573 0.004,-3.69594 0.33252,-5.05706 0.19382,-0.80232 0.59119,-2.06629 0.88304,-2.80876 0.5969,-1.51855 2.13719,-4.77666 2.46217,-5.20814 0.20685,-0.27461 0.21345,-0.27096 0.22698,0.12546 0.0239,0.70118 -0.44098,5.29448 -0.75194,7.42905 -0.37661,2.58535 -1.27388,6.51677 -2.12335,9.30355 -0.36281,1.19025 -0.68212,2.16408 -0.70957,2.16408 -0.0275,0 -0.10618,-0.52872 -0.17495,-1.17496 z"
       id="path18340" /><path
       style="fill:#6c5353;stroke:#000000;stroke-width:755.944;stroke-opacity:0;paint-order:markers fill stroke"
       d="m 159.69612,113.11589 c -0.29108,-1.19909 -0.29364,-1.20004 -3.19769,-1.20004 -2.33037,0 -3.04387,-0.14817 -3.60021,-0.74761 -0.67087,-0.72284 -0.55151,-0.76946 3.60565,-1.40822 l 4.29948,-0.66063 4.17729,-4.49207 c 2.29752,-2.47066 4.18132,-4.689952 4.18624,-4.931782 0.009,-0.42185 -5.33995,-0.95346 -9.64155,-0.9583 -1.30543,-0.003 -2.04562,-0.22561 -2.55399,-0.77337 -0.69218,-0.74581 -0.66608,-0.78513 0.78965,-1.18965 0.82802,-0.23011 4.82256,-1.16462 8.87676,-2.07672 l 7.37126,-1.65838 2.55699,-2.37217 c 1.47689,-1.37015 3.91458,-3.05708 5.7709,-3.99354 2.82685,-1.42611 3.64076,-1.64664 6.75803,-1.831 l 3.54411,-0.2096 -1.00711,1.15088 c -0.55391,0.63299 -4.93851,5.63592 -9.74355,11.11764 l -8.73643,9.966772 -0.17235,-2.26637 c -0.0948,-1.2465 -0.30063,-2.26637 -0.45741,-2.26637 -0.15678,0 -2.91828,2.70013 -6.13667,6.0003 -3.21839,3.30018 -5.97457,6.0003 -6.12485,6.0003 -0.15028,0 -0.40433,-0.54004 -0.56455,-1.20007 z"
       id="path18342" /></g></svg>
