<?xml version="1.0" encoding="UTF-8" standalone="no"?>
<!-- Uploaded to: SVG Repo, www.svgrepo.com, Generator: SVG Repo Mixer Tools -->

<svg
   fill="#000000"
   width="714.11115"
   height="668.57141"
   viewBox="0 0 49.98778 46.799999"
   id="Layer_1"
   version="1.1"
   xml:space="preserve"
   xmlns="http://www.w3.org/2000/svg"
   xmlns:svg="http://www.w3.org/2000/svg"><defs
   id="defs11" />

<g
   id="g6"
   transform="translate(-3,-4.5999999)">

<path
   d="M 51.7,8 C 50.8,6.9 49.6,6.3 48.2,6.2 45.4,6.1 42.5,8.3 40.9,9.8 40,9 38,7.3 35.8,6.6 c -3,-1.3 -6.1,-2 -9.4,-2 -3.1,0 -6.1,0.6 -8.9,1.7 0,0 0,0 0,0 C 8.7,10 3,18.5 3,28 3,40.9 13.5,51.4 26.4,51.4 39.3,51.4 49.8,40.9 49.8,28 c 0,-2.8 -0.5,-5.6 -1.5,-8.2 l 3.5,-4.7 C 53.4,12.9 53.4,10 51.7,8 Z M 18,8.3 19.2,8.5 c 0,0 0,0 -0.1,0 -0.5,0.4 -0.8,1 -0.7,1.7 0.1,0.7 0.4,1.3 1.1,1.6 l 1.6,0.7 -3.4,4 h -2.9 c -0.7,0 -1.4,0.4 -1.7,1 -0.3,0.6 -0.3,1.4 0.1,2 l 0.6,0.8 h -4 l -2.6,-2 c 2.3,-4.3 6,-8 10.8,-10 z m 8.4,41.1 C 14.6,49.4 5,39.8 5,28 5,25.3 5.5,22.7 6.4,20.3 L 8.6,22 c 0.3,0.3 0.8,0.4 1.2,0.4 h 4 c 0.7,0 1.4,-0.4 1.7,-1 0.3,-0.6 0.3,-1.4 -0.1,-2 l -0.6,-0.8 h 2.9 c 0.6,0 1.1,-0.2 1.5,-0.7 l 3.5,-4 c 0.4,-0.5 0.5,-1.1 0.4,-1.6 -0.1,-0.6 -0.5,-1.1 -1,-1.4 l -1.6,-0.7 c 0,0 0,0 0.1,0 C 21.2,9.7 21.5,9 21.3,8.3 21.2,8 21.1,7.7 20.9,7.5 22.7,7 24.6,6.7 26.6,6.7 c 1.4,0 2.9,0.1 4.2,0.4 -0.4,0.3 -0.8,0.7 -1.1,1 -1.7,2 -1.7,4.8 -0.1,7.1 l 7.2,9.6 c 0.9,1.2 2.4,1.9 4,1.9 1.6,0 3.1,-0.7 4,-1.9 l 2.2,-3 c 0.6,2 0.9,4.1 0.9,6.3 -0.1,11.7 -9.7,21.3 -21.5,21.3 z M 50.2,13.9 46.4,19 c 0,0 0,0 0,0 0,0 0,0 0,0 l -3.3,4.5 c -0.5,0.7 -1.4,1.1 -2.4,1.1 -1,0 -1.9,-0.4 -2.4,-1.1 L 31,13.9 c -1.1,-1.5 -1,-3.3 0.1,-4.6 1,-1.1 2.3,-1.4 4.1,-0.9 0,0 0,0 0,0 2.2,0.7 4.2,2.6 4.9,3.3 l 0.1,0.1 c 0,0 0.1,0.1 0.1,0.1 0,0 0,0 0,0 0,0 0,0 0,0 0.1,0.1 0.1,0.1 0.2,0.1 0.1,0 0.1,0.1 0.1,0.1 0.1,0 0.1,0 0.2,0 0.1,0 0.1,0 0.2,0 0,0 0.1,0 0.1,0 0.1,0 0.2,0 0.2,0 0.1,0 0.1,-0.1 0.1,-0.1 0.1,0 0.1,-0.1 0.2,-0.1 0,0 0,0 0,0 0,0 0,0 0,0 0.9,-0.9 4,-3.8 6.5,-3.7 0.8,0 1.4,0.4 2,1 1.2,1.4 1.2,3.2 0.1,4.7 z"
   id="path2" />

<path
   d="m 36.1,32.5 c -0.3,-0.6 -0.9,-1 -1.5,-1.1 v 0 l -2.9,-0.6 c 0,0 -0.1,0 -0.1,-0.1 l -5.2,-5.2 c -1.2,-1.2 -2.9,-1.9 -4.5,-1.9 -3.2,0 -5.3,1.5 -5.9,4.2 -0.6,2.6 0.6,5.5 2.9,7.1 l 4.8,3.3 c 0,0 0.1,0.1 0.1,0.1 l 0.7,6.6 c 0.1,0.9 0.7,1.6 1.6,1.9 0.2,0 0.4,0.1 0.6,0.1 0.7,0 1.4,-0.3 1.8,-0.9 l 1.6,-2.3 1.3,-0.7 c 0.8,-0.5 1.2,-1.4 1.1,-2.3 l -0.3,-1.9 c 0,-0.1 0,-0.1 0,-0.2 0,-0.1 0.1,-0.1 0.1,-0.1 h 0.1 c 0.7,0 1.3,-0.3 1.7,-0.8 0.4,-0.5 0.6,-1.2 0.4,-1.9 0,-0.1 0,-0.1 0,-0.2 0,-0.1 0.1,-0.1 0.2,-0.1 h 1.4 c 0.4,0 0.7,-0.2 0.9,-0.5 0.2,-0.3 0.2,-0.7 0,-1 z m -3.1,2 c -0.4,0.5 -0.6,1.2 -0.4,1.9 0,0.1 0,0.1 0,0.2 0,0 -0.1,0.1 -0.2,0.1 h -0.1 c -0.6,0 -1.3,0.3 -1.7,0.8 -0.4,0.5 -0.6,1.1 -0.5,1.8 l 0.3,1.9 c 0,0.1 0,0.2 -0.1,0.2 L 29.1,42 c -0.3,0.2 -0.5,0.4 -0.7,0.6 l -1.6,2.2 c 0,0 -0.1,0.1 -0.2,0.1 -0.1,0 -0.1,-0.1 -0.1,-0.2 L 25.8,38.1 C 25.7,37.5 25.4,36.9 24.9,36.5 L 20,33.2 c -1.7,-1.2 -2.5,-3.2 -2.1,-5 0.1,-0.6 0.6,-2.6 4,-2.6 0,0 0,0 0,0 1.1,0 2.2,0.5 3,1.3 l 5.2,5.2 c 0.3,0.3 0.7,0.5 1.2,0.6 l 2.9,0.6 c 0.1,0 0.1,0 0.1,0.1 l 0.2,0.3 c -0.6,0.1 -1.1,0.4 -1.5,0.8 z"
   id="path4" />

</g>

<path
   style="fill:#0000ff;stroke-width:0.032"
   d="M 21.849892,44.682437 C 16.034219,44.213454 10.779385,41.510614 7.067837,37.079242 2.3529683,31.449963 0.861881,23.872968 3.080059,16.815257 l 0.3262585,-1.038077 1.143508,0.887858 c 0.628929,0.488322 1.248352,0.943456 1.3764954,1.01141 0.3574879,0.189573 5.2663401,0.169558 5.7171051,-0.02331 0.761065,-0.325637 1.258945,-1.282933 1.102092,-2.119038 -0.04034,-0.215027 -0.233626,-0.629137 -0.429526,-0.920243 l -0.356182,-0.529283 1.725145,-0.03562 c 1.416731,-0.02925 1.775607,-0.06872 2.007405,-0.220798 0.336282,-0.220621 3.921464,-4.2754649 4.235087,-4.7898869 0.243702,-0.399734 0.295505,-1.262041 0.106011,-1.764657 -0.189706,-0.503181 -0.724814,-0.958129 -1.550256,-1.318028 l -0.786009,-0.342707 0.25557,-0.3037285 C 18.464948,4.7004514 18.545229,3.9058331 18.168202,3.1767439 L 18.02136,2.8927826 19.11068,2.6673287 c 1.9544,-0.404498 2.662368,-0.4791424 4.555987,-0.4803594 1.545728,-9.933e-4 3.591143,0.1661981 3.849062,0.3146211 0.03432,0.019748 -0.234625,0.3403197 -0.59765,0.7123809 -1.710561,1.753136 -2.030282,4.3387438 -0.819893,6.6305438 0.503364,0.9530919 7.599987,10.4089899 8.278933,11.0312699 1.445762,1.325092 3.804532,1.643276 5.686703,0.767104 0.911708,-0.424412 1.53853,-1.046932 2.808715,-2.789437 0.597447,-0.819612 1.098882,-1.475933 1.114298,-1.458494 0.08537,0.09657 0.491009,2.00898 0.640232,3.018375 0.229984,1.555689 0.229717,4.327633 -5.6e-4,5.86303 -0.918068,6.121256 -4.342319,11.503696 -9.50235,14.936356 -3.801568,2.528956 -8.785522,3.831696 -13.274263,3.469718 z m 2.846555,-2.55499 c 0.467845,-0.212428 0.864871,-0.664095 1.844964,-2.09888 0.51908,-0.759893 0.67346,-0.903236 1.44,-1.337056 1.444058,-0.817256 1.747199,-1.605242 1.409884,-3.664844 -0.08648,-0.528 -0.138994,-0.989634 -0.116709,-1.025852 0.02228,-0.03622 0.253697,-0.08988 0.514251,-0.119249 0.646,-0.07281 1.183594,-0.431032 1.527468,-1.017807 0.239224,-0.408207 0.286628,-0.613504 0.281098,-1.217384 l -0.0067,-0.726375 0.97129,-0.0024 c 1.030713,-0.0025 1.289645,-0.103704 1.545473,-0.603949 0.200071,-0.391218 0.141532,-0.59332 -0.47478,-1.639156 -1.012046,-1.71737 -1.101068,-1.773398 -3.566069,-2.244354 L 28.84,26.195811 25.906667,23.2955 C 24.293333,21.700329 22.821152,20.290723 22.635153,20.163042 21.493152,19.379102 20.177451,18.976334 18.76,18.976764 c -2.909169,8.54e-4 -4.950322,1.360171 -5.713621,3.804935 -0.25701,0.823171 -0.306294,2.205734 -0.111263,3.121218 0.317346,1.489635 1.333069,3.194542 2.410658,4.046328 0.298227,0.235735 1.64443,1.184033 2.991562,2.107329 1.425717,0.977157 2.449187,1.747964 2.448986,1.844407 -9.59e-4,0.461256 0.670006,6.515719 0.761177,6.868489 0.130215,0.503853 0.859738,1.259904 1.373596,1.423546 0.573399,0.182601 1.286827,0.156254 1.775352,-0.06557 z"
   id="path309" /><path
   style="fill:#008000;stroke-width:0.032"
   d="M 5.5648878,14.666633 4.263109,13.669126 4.8858864,12.647681 C 6.7228313,9.6348261 9.370937,6.9389331 12.174057,5.2279896 c 1.404584,-0.8573173 2.665624,-1.4334467 3.102158,-1.4172788 0.225253,0.00834 0.450002,0.04017 0.499443,0.070726 0.04944,0.030556 -0.02628,0.258734 -0.168264,0.5070604 -0.506711,0.8862098 -0.239995,2.1634959 0.557566,2.6701459 0.224605,0.14268 0.72882,0.394987 1.120474,0.560682 l 0.712102,0.301264 -0.823445,0.966373 C 16.721197,9.4184661 15.974429,10.297334 15.514607,10.84 l -0.836038,0.986667 -1.612618,0.0023 c -1.342113,0.002 -1.686036,0.03569 -2.050302,0.201112 -0.586416,0.266314 -0.960646,0.691639 -1.101807,1.252241 -0.162461,0.64519 -0.03824,1.248541 0.383195,1.861198 l 0.359834,0.523107 -1.895102,-0.0013 -1.8951024,-0.0013 z"
   id="path518" /><path
   style="fill:#008000;stroke-width:0.032"
   d="m 23.56,40.153353 c 0,-0.02566 -0.167904,-1.61517 -0.37312,-3.532254 -0.345193,-3.224717 -0.395092,-3.526606 -0.666667,-4.033354 -0.272969,-0.509348 -0.482291,-0.674859 -2.986054,-2.361078 -2.908168,-1.958576 -3.568962,-2.522461 -4.080368,-3.481956 -0.905057,-1.69806 -0.746812,-3.608782 0.390353,-4.713308 1.023857,-0.99447 3.29602,-1.244508 4.823749,-0.530825 0.489594,0.228716 1.153082,0.829933 3.638774,3.29726 1.882921,1.869012 3.182097,3.076463 3.413333,3.172344 0.205334,0.08514 1.021333,0.284744 1.813333,0.443561 1.969082,0.394852 2.146048,0.502479 1.358536,0.826234 -0.948342,0.389873 -1.385592,1.046592 -1.401475,2.104916 l -0.01039,0.692551 -0.49035,0.0701 c -1.579565,0.225818 -2.208247,1.440481 -1.80825,3.493679 0.196507,1.008679 0.167305,1.128073 -0.330865,1.352716 -0.978888,0.441417 -1.33575,0.762154 -2.233737,2.00762 C 23.847371,40.028718 23.56,40.352798 23.56,40.153353 Z"
   id="path520" /><path
   style="fill:#ff0000;stroke-width:0.032"
   d="M 36.531869,19.719702 C 36.245063,19.607694 35.891894,19.405938 35.747048,19.271358 35.237144,18.797594 27.810608,8.9374811 27.592783,8.4450511 26.720029,6.4720481 27.899056,4.135823 29.988732,3.6975089 c 0.47677,-0.1000034 0.776235,-0.09931 1.373908,0.00318 1.678778,0.2878785 3.134279,1.1276321 5.261638,3.0357092 0.807079,0.723889 0.967725,0.823604 1.326863,0.823604 0.343253,0 0.511237,-0.09157 1.050211,-0.572489 2.335329,-2.0837748 4.011594,-3.069778 5.648051,-3.3222638 1.826845,-0.2818613 3.679191,1.9647968 3.236517,3.9254778 -0.19048,0.843668 -0.473727,1.315303 -2.095535,3.4892739 -0.853438,1.144001 -2.466937,3.328001 -3.585555,4.853333 -1.118618,1.525334 -2.205364,2.953643 -2.414992,3.17402 -0.735416,0.773129 -2.160455,1.040972 -3.257969,0.61235 z"
   id="path591" /></svg>
