<?xml version="1.0" encoding="UTF-8" standalone="no"?>
<!-- Created with Inkscape (http://www.inkscape.org/) -->

<svg
   width="694.00006mm"
   height="157.44702mm"
   viewBox="0 0 694.00004 157.44702"
   version="1.1"
   id="svg13245"
   xml:space="preserve"
   xmlns="http://www.w3.org/2000/svg"
   xmlns:svg="http://www.w3.org/2000/svg"><defs
     id="defs13242" /><g
     id="layer1"
     transform="translate(-8.1707144,-74.359291)"><g
       id="g1109"><path
         id="path18332"
         style="display:inline;fill:#ffffff;stroke:#000000;stroke-width:1069.07;stroke-opacity:0;paint-order:markers fill stroke"
         d="m 154.79097,139.84972 c -0.98652,0.83806 -1.88925,1.72935 -2.88021,2.60299 -1.87312,1.8429 -1.94059,2.33896 -3.58245,4.38672 1.10157,0.25018 -1.99094,2.85043 -1.98437,2.50204 0.28133,-0.96091 -0.93847,1.74602 -1.31038,1.83719 -0.88151,0.49475 -1.46062,1.75663 -2.18328,2.45225 -14.41354,16.31224 -28.34769,30.467 -44.285931,45.31108 -7.40797,6.88505 -14.698025,13.51226 -22.806325,19.57672 -1.10107,0.92747 -4.043074,0.92484 -4.027274,2.55349 -0.04509,1.27247 1.622884,0.9956 2.794144,1.17461 3.74684,0.69279 7.328058,0.54654 11.123858,0.52381 5.05486,-0.10564 9.727579,-0.36065 14.666508,-1.52263 9.84123,-2.19349 19.20385,-6.20099 27.40325,-12.07396 5.36921,-4.12283 9.40412,-8.53716 13.72853,-13.73167 3.49403,-4.18818 6.21376,-9.2636 8.59131,-14.15441 3.76125,-7.75362 5.94386,-15.12544 6.49289,-23.71142 0.27569,-4.25894 -0.53738,-8.32672 -0.58358,-12.59316 -0.0948,-1.56184 1.37114,-2.96955 -0.0271,-3.98851 -0.44338,-0.29342 -0.62304,-1.02862 -1.12963,-1.14514 z" /><path
         id="path18261"
         style="fill:#000000;stroke-width:0.174488"
         d="m -191.29102,369.1543 c -2.96407,0.0657 -5.88064,0.22637 -7.60546,0.46289 -12.86692,1.76434 -24.44728,6.52399 -34.42969,14.15429 -5.23757,4.00347 -10.59929,9.47734 -14.49024,14.79102 -1.68998,2.30793 -4.26189,6.45365 -5.53711,8.92773 -0.52025,1.00937 -0.82822,1.57234 -1.03906,1.86329 -0.21084,0.29094 -0.26477,0.31034 -0.52148,0.4121 -0.39839,0.15793 -0.69694,0.34683 -0.88086,0.68555 -0.092,0.16936 -0.15371,0.48535 0.0293,0.72852 0.12254,0.16283 0.27866,0.15785 0.42773,0.18554 -0.0336,0.16171 -0.14942,0.53255 -0.44141,1.20118 -7.81431,17.89389 -7.71061,39.88306 0.26953,58.23047 4.64464,10.67863 11.64413,20.19537 20.36133,27.68554 0.32108,0.27589 0.61386,0.54816 0.81836,0.75586 0.0377,0.0383 0.0528,0.0585 0.084,0.0918 -0.10518,0.11586 -0.2346,0.25333 -0.41016,0.42773 -0.40758,0.40491 -0.96727,0.93106 -1.55273,1.46094 -0.58547,0.52988 -1.19786,1.06589 -1.70899,1.49219 -0.51113,0.42629 -0.96649,0.76153 -1.06055,0.8125 -0.009,0.005 -0.0648,0.0323 -0.28125,0.0117 -0.21643,-0.0206 -0.56343,-0.0913 -1.06445,-0.21875 -4.48954,-1.14256 -8.05417,-3.72785 -10.67969,-7.69532 -2.62551,-3.96746 -4.29805,-9.32947 -4.90625,-15.98437 -0.12545,-1.37283 -0.23622,-2.80671 -0.24218,-3.03906 -0.005,-0.19422 -0.0292,-0.37043 -0.0801,-0.53516 -0.0255,-0.0824 -0.0553,-0.16233 -0.1211,-0.25781 -0.0658,-0.0955 -0.20906,-0.25977 -0.47265,-0.25977 -0.21837,0 -0.38007,0.13126 -0.45899,0.22656 -0.0789,0.0953 -0.11793,0.17861 -0.15234,0.26563 -0.0688,0.17405 -0.11208,0.36581 -0.1543,0.60351 -0.0844,0.47542 -0.14945,1.12229 -0.20117,1.91602 -0.10344,1.58746 -0.14975,3.75164 -0.14453,6.11719 0.0104,4.73109 0.23132,10.24866 0.66797,13.50976 0.86153,6.43431 2.05909,10.74635 4.13476,14.81641 1.26326,2.47707 2.31163,3.96959 3.91797,5.57227 2.47382,2.46817 5.17481,3.91608 8.64453,4.63671 2.1009,0.43634 7.03142,0.24729 9.60157,-0.32421 11.68919,-2.59926 26.06276,-11.39141 44.34765,-27.01563 9.31577,-7.96021 18.65579,-16.86329 30.25586,-28.83984 9.05054,-9.34426 16.76553,-17.73514 26.13672,-28.4336 5.93745,-6.77839 13.51925,-15.76196 19.61719,-23.15625 3.04897,-3.69714 5.7256,-6.99594 7.64258,-9.42578 0.95849,-1.21492 1.7273,-2.21206 2.25976,-2.9375 0.26623,-0.36272 0.47227,-0.65738 0.61914,-0.88476 0.0734,-0.11369 0.130731,-0.2085 0.177738,-0.29883 0.04701,-0.0903 0.115517,-0.11508 0.109374,-0.38086 -0.0017,-0.0732 -0.01015,-0.16813 -0.07617,-0.28516 -0.06602,-0.11702 -0.217582,-0.23398 -0.353522,-0.26562 -0.27187,-0.0633 -0.38635,0.0335 -0.49023,0.0918 -0.20776,0.11669 -0.39432,0.28079 -0.67187,0.54102 -0.55511,0.52046 -1.40536,1.40943 -2.67579,2.7832 -3.05762,3.30637 -6.65622,7.13465 -9.50976,10.13477 -1.42677,1.50006 -2.66758,2.79305 -3.56055,3.70898 -0.43088,0.44196 -0.76906,0.78611 -1.01758,1.03125 -0.022,-0.0452 -0.0348,-0.0646 -0.0586,-0.11523 -0.1899,-0.40444 -0.43328,-0.97554 -0.67773,-1.60156 -2.45419,-6.28495 -5.74626,-12.24537 -9.70899,-17.58204 -13.23853,-17.82851 -32.93358,-28.84263 -54.86914,-30.67968 -1.8616,-0.1559 -4.85235,-0.18487 -7.81641,-0.11914 z m 3.07618,1.25195 c 3.60751,0.0606 7.22493,0.33799 10.26172,0.82227 10.23502,1.6322 20.11584,5.44234 28.76757,11.09179 13.35337,8.71955 23.27196,20.932 29.16602,35.91016 l 0.85742,2.18164 -8.06055,8.12695 c -9.34953,9.42641 -11.35522,11.40849 -17.15429,16.94532 -10.19219,9.73127 -20.03065,18.51781 -28.625,25.57031 -1.01489,0.83281 -1.95307,1.58973 -2.64453,2.13672 -0.1385,0.10955 -0.21478,0.16624 -0.33204,0.25781 0.95039,-5.11523 1.22886,-7.91115 1.12891,-12.25 -0.15538,-6.74078 -1.1001,-11.16412 -4.92383,-23.10352 -1.70205,-5.31458 -2.78658,-9.02543 -3.21094,-10.97265 l -0.18359,-0.8418 0.66602,-0.7207 a 0.49741318,0.49741318 0 0 0 0,-0.002 c 2.80356,-3.04972 4.80855,-6.83824 5.81445,-10.97656 0.35901,-1.47861 0.41563,-2.1613 0.36719,-4.67969 -0.0277,-1.44223 -0.10418,-2.35271 -0.21485,-3.14257 0.46881,1.10826 0.91179,2.30745 1.17774,3.31445 1.26888,4.80457 1.02194,10.00968 -0.77344,15.76562 -0.25105,0.80481 -0.39341,1.34359 -0.40625,1.77735 -0.006,0.21688 -0.008,0.45885 0.22266,0.68554 0.11521,0.11335 0.28938,0.17924 0.42968,0.18555 0.14031,0.006 0.25147,-0.0264 0.34961,-0.0644 0.28986,-0.11223 0.30695,-0.21246 0.42188,-0.34766 0.11492,-0.13519 0.24274,-0.30508 0.38672,-0.50781 0.28796,-0.40547 0.63775,-0.94221 1.00781,-1.54102 0.74013,-1.19761 1.55738,-2.63636 2.08789,-3.73437 3.38559,-7.00726 3.21998,-13.22696 -0.58398,-18.09961 -0.74637,-0.95606 -1.8044,-1.95474 -2.79883,-2.76563 0.88716,0.23553 1.90889,0.5304 2.66406,0.79297 6.98522,2.42878 12.24091,7.69002 14.94922,14.98633 1.04385,2.81216 1.50938,4.85167 1.99219,8.7207 0.0782,0.62649 0.1526,1.04512 0.3789,1.39454 0.0566,0.0874 0.12871,0.18078 0.26563,0.25781 0.13692,0.077 0.36568,0.10123 0.52734,0.0332 0.32332,-0.13605 0.37664,-0.3508 0.45117,-0.55469 0.0845,-0.231 0.14495,-0.5307 0.22266,-0.95703 0.0777,-0.42633 0.16035,-0.95412 0.24219,-1.52734 0.16367,-1.14644 0.32063,-2.47454 0.40429,-3.5293 0.2102,-2.64993 -0.0249,-7.52955 -0.49218,-9.41992 -1.20734,-4.88435 -3.45575,-8.23536 -7.14063,-10.58398 -3.38118,-2.15506 -7.70581,-3.1095 -13.0039,-2.92188 -0.29732,0.0105 -0.42964,0.0117 -0.66407,0.0195 0.0364,-0.0201 0.0443,-0.026 0.082,-0.0469 7.35963,-4.07172 19.11298,-4.58643 30.7461,-1.23633 0.43163,0.1243 0.83777,0.22727 1.1582,0.29492 0.16022,0.0338 0.29746,0.0574 0.41602,0.0723 0.0593,0.007 0.11301,0.0133 0.17578,0.0137 0.0628,3.3e-4 0.11217,0.05 0.32617,-0.084 0.11028,-0.0691 0.24499,-0.18754 0.30469,-0.3789 0.0597,-0.19137 0.01,-0.39486 -0.0606,-0.52344 -0.14116,-0.25716 -0.32909,-0.38607 -0.59375,-0.56445 -0.52933,-0.35676 -1.40668,-0.81303 -2.79101,-1.48633 -4.92739,-2.39654 -9.17433,-3.91734 -13.59766,-4.86524 -1.58656,-0.34 -2.47496,-0.40704 -5.51953,-0.41406 -3.21306,-0.007 -3.84659,0.0466 -5.26758,0.41992 -1.96284,0.51567 -4.14089,1.51411 -5.69336,2.61719 -0.051,0.0363 -0.0797,0.0501 -0.12891,0.084 0.0455,-0.20916 0.0848,-0.3933 0.13868,-0.62891 0.30031,-1.31283 0.35451,-2.12176 0.29296,-4.45899 -0.0667,-2.53266 -0.14174,-3.06458 -0.61132,-4.50195 -1.01397,-3.10366 -2.47216,-5.46085 -4.79102,-7.74023 -0.48716,-0.47887 -0.87865,-0.83157 -1.19922,-1.07227 -0.16028,-0.12035 -0.30156,-0.21419 -0.45312,-0.2832 -0.15157,-0.069 -0.34181,-0.15332 -0.61328,-0.041 -0.13574,0.0562 -0.25563,0.17939 -0.3125,0.29493 -0.0569,0.11553 -0.0695,0.21697 -0.0723,0.30664 -0.005,0.17932 0.0305,0.33002 0.082,0.50586 0.10304,0.35167 0.29034,0.7903 0.56641,1.35937 0.84465,1.74113 1.5085,3.66513 2.07422,6.01953 0.37305,1.55258 0.43064,2.21307 0.52343,5.96289 0.0825,3.33803 0.0452,4.60529 -0.16601,6.10742 -0.11115,-0.45945 -0.18373,-0.87491 -0.31445,-1.29101 -1.81001,-5.76134 -5.86966,-9.77269 -11.41211,-11.24414 -1.3169,-0.34962 -3.34088,-0.5029 -5.16407,-0.5 -0.91159,0.001 -1.76778,0.0441 -2.45508,0.13086 -0.34364,0.0434 -0.64348,0.0979 -0.90039,0.16992 -0.2569,0.072 -0.4726,0.13372 -0.67968,0.3457 -0.1612,0.16502 -0.25873,0.52755 -0.15235,0.76953 0.10639,0.24199 0.2736,0.35449 0.45118,0.46094 0.35515,0.2129 0.84245,0.37639 1.51757,0.54883 6.28211,1.60462 11.85492,5.87865 15.20703,11.61523 -2.39656,-1.56708 -4.54246,-2.66507 -6.74414,-3.23828 -5.64553,-1.4698 -11.12828,-0.53073 -15.93164,2.73438 -0.82213,0.55884 -1.97339,1.57982 -2.94922,2.53711 -0.48791,0.47864 -0.92719,0.93753 -1.2539,1.31836 -0.16336,0.19041 -0.29793,0.36102 -0.40235,0.51562 -0.10441,0.1546 -0.22676,0.22364 -0.21875,0.57031 0.003,0.14728 -0.0155,0.34834 0.19727,0.57227 0.10641,0.11197 0.26983,0.17991 0.39844,0.19336 0.1286,0.0134 0.22991,-0.006 0.32617,-0.0312 0.38505,-0.0999 0.79766,-0.3363 1.59375,-0.77149 4.60952,-2.51981 10.53189,-3.64298 15.81641,-2.99804 0.55659,0.0679 1.4917,0.25525 2.36328,0.43359 -2.10913,0.1155 -3.76165,0.45711 -5.58399,1.33008 -3.20147,1.53362 -5.41148,3.84598 -7.13672,7.43945 -0.72076,1.50127 -1.68407,4.41088 -1.86132,5.7168 -0.008,0.0581 -0.0207,0.0879 -0.0312,0.14062 -0.009,-0.005 -0.0137,-0.007 -0.0234,-0.0117 -0.26605,-0.14176 -0.6191,-0.34049 -0.98633,-0.56054 -3.42682,-2.05344 -6.14647,-2.92256 -9.5957,-3.05078 -2.91203,-0.10825 -4.63391,0.24835 -7.08985,1.47265 -2.03943,1.01667 -3.53359,2.18079 -5.40625,4.19922 -0.70395,0.75875 -1.62748,1.96279 -2.45507,3.14453 -0.5641,0.80549 -0.89097,1.41095 -1.25391,2.04492 0.008,-0.0839 -0.002,-0.086 0.008,-0.17382 0.18001,-1.57596 0.61843,-3.91556 1.16211,-5.73242 2.0378,-6.80998 7.35126,-14.49794 13.97461,-20.15821 0.68764,-0.58767 1.15072,-1.03 1.42383,-1.39844 0.13655,-0.18422 0.28107,-0.32946 0.25195,-0.67382 -0.0146,-0.17219 -0.14806,-0.38506 -0.29883,-0.47266 -0.15077,-0.0876 -0.27968,-0.0957 -0.39257,-0.0957 -0.30214,0 -0.39712,0.0843 -0.61915,0.18164 -0.22202,0.0973 -0.49167,0.2297 -0.80664,0.39453 -0.62992,0.32965 -1.43238,0.78448 -2.29687,1.29492 -1.72899,1.02089 -3.69998,2.26461 -4.9961,3.19922 -8.46206,6.10186 -12.83621,12.77022 -12.67773,19.62695 0.008,0.33149 0.009,0.5754 0.0117,0.84961 -0.31762,-0.29997 -0.66692,-0.63162 -1.08594,-1.03515 -2.99663,-2.8859 -5.90714,-4.41555 -9.67969,-5.07227 -0.8478,-0.14758 -2.06455,-0.20732 -3.22265,-0.19922 -0.91472,0.006 -1.61671,0.0919 -2.2461,0.19922 l 0.0352,-0.0742 a 0.49741318,0.49741318 0 0 0 0,-0.002 c 0.78516,-1.63142 1.91968,-3.63621 3.34766,-5.91406 11.2184,-17.89511 29.84146,-29.73695 51.01367,-32.43555 3.0016,-0.38258 6.60349,-0.5411 10.21094,-0.48047 z M -78.75,376.91797 c -1.730014,-0.13861 -4.964729,0.13885 -6.820312,0.57617 -3.192196,0.75233 -7.049776,3.16327 -10.621094,6.55469 -0.399542,0.37942 -0.809126,0.73756 -1.136719,1 -0.163796,0.13122 -0.308269,0.23889 -0.414063,0.31055 -0.105793,0.0717 -0.220663,0.10308 -0.109374,0.0762 -0.06577,0.0159 -1.157288,0.26559 -2.769528,0.63086 -1.61225,0.36526 -3.78132,0.85673 -6.11914,1.38476 -2.33975,0.52847 -4.48403,1.02649 -6.05665,1.4043 -0.7863,0.18891 -1.42915,0.34689 -1.88476,0.46484 -0.22781,0.059 -0.40818,0.10782 -0.54102,0.14649 -0.0664,0.0193 -0.12111,0.0358 -0.16992,0.0527 -0.0244,0.008 -0.0464,0.0163 -0.0762,0.0293 -0.0298,0.013 -0.0473,-0.0123 -0.17578,0.11914 -0.19461,0.19921 -0.17841,0.40743 -0.16211,0.53711 0.0163,0.12967 0.0534,0.23409 0.0996,0.34765 0.0924,0.22713 0.23287,0.47745 0.41797,0.75586 0.2467,0.3711 0.41196,0.66614 0.66601,0.93555 0.25406,0.26942 0.60523,0.47143 1.05078,0.58203 0.89111,0.2212 2.24891,0.22855 5.2168,0.32813 1.45694,0.0489 2.82989,0.10116 3.86328,0.14843 0.5167,0.0236 0.94905,0.0456 1.26367,0.0645 0.006,3.4e-4 0.008,0.002 0.0137,0.002 -0.0847,0.10455 -0.053,0.0696 -0.17969,0.21094 -0.42363,0.47273 -2.33824,2.50081 -4.21094,4.45898 l -3.28906,3.43946 -4.19531,0.60937 c -1.20318,0.17502 -2.32015,0.34828 -3.1543,0.48828 -0.41707,0.07 -0.76326,0.13207 -1.01758,0.18164 -0.12716,0.0248 -0.23083,0.0466 -0.31445,0.0664 -0.0418,0.01 -0.0778,0.02 -0.11524,0.0312 -0.0374,0.0112 -0.0543,10e-4 -0.16406,0.0703 -0.14329,0.0898 -0.3361,0.29469 -0.35351,0.55274 -0.0174,0.25804 0.093,0.43314 0.20312,0.58203 0.2203,0.29777 0.56117,0.5933 1.12891,1.0664 l 0.96679,0.80664 a 0.49741318,0.49741318 0 0 0 0.31836,0.11524 h 2.74805 c 1.23094,0 1.92335,0.0109 2.25977,0.0469 0.11015,0.0118 0.11354,0.0164 0.14062,0.0234 0.0591,0.19535 0.17202,0.58014 0.2793,0.96289 0.0657,0.23447 0.14408,0.46726 0.22461,0.66797 0.0805,0.20071 0.12121,0.33654 0.27539,0.51953 0.15811,0.18754 0.31619,0.2474 0.48437,0.30469 0.16819,0.0573 0.34812,0.0918 0.53907,0.0918 0.35369,0 0.51406,-0.15454 0.78124,-0.35938 0.26719,-0.20484 0.60791,-0.50926 1.08399,-0.96094 0.95217,-0.90334 2.43489,-2.39759 4.78711,-4.80468 2.37588,-2.43131 3.83601,-3.90581 4.689452,-4.71485 0.126319,-0.11974 0.147072,-0.12531 0.248047,-0.21679 -0.03393,0.46442 -0.08084,1.03429 -0.132813,1.61523 -0.100268,1.1208 -0.142993,1.80059 -0.0625,2.28125 0.02012,0.12017 0.0473,0.23292 0.117188,0.35937 0.06989,0.12646 0.22574,0.28781 0.433594,0.32813 0.207853,0.0403 0.373613,-0.0313 0.482421,-0.0977 0.108808,-0.0664 0.186915,-0.14149 0.265625,-0.22461 1.147525,-1.21168 6.285331,-7.066 11.175782,-12.68554 2.445225,-2.80977 4.82061,-5.5532 6.585937,-7.60743 0.882664,-1.02711 1.61238,-1.88214 2.123047,-2.48828 0.255334,-0.30307 0.456434,-0.54326 0.595703,-0.71484 0.06964,-0.0858 0.122635,-0.15424 0.164063,-0.20898 0.02071,-0.0274 0.03764,-0.0496 0.05664,-0.0781 0.0095,-0.0143 0.0202,-0.0288 0.03516,-0.0566 0.0075,-0.0139 0.01539,-0.0315 0.02734,-0.0625 0.01196,-0.031 0.03517,-0.18671 0.03516,-0.1875 a 0.49741318,0.49741318 0 0 0 0,-0.002 c -0.0023,-0.14612 -0.06785,-0.34518 -0.189453,-0.47461 -0.121605,-0.12943 -0.258694,-0.18929 -0.390625,-0.23242 -0.26386,-0.0863 -0.562681,-0.11756 -1.021484,-0.1543 z m -1.962891,1.29687 c 0.73395,-0.0276 1.354615,-0.0115 1.78711,0.0312 -0.122175,0.14209 -0.231253,0.26882 -0.40625,0.47071 -0.523859,0.60435 -1.274775,1.46506 -2.195313,2.51758 -1.841075,2.10502 -4.362736,4.97882 -7.121094,8.11132 -5.587232,6.3451 -8.189363,9.33798 -9.248046,10.27149 0.02404,-0.30017 0.04523,-0.55652 0.09766,-1.10938 0.10301,-1.08632 0.152476,-1.757 0.132812,-2.21875 -0.0098,-0.23087 -0.02496,-0.41317 -0.125,-0.61523 -0.100034,-0.20206 -0.400359,-0.39258 -0.61914,-0.39258 -0.21301,0 -0.230273,0.0529 -0.267578,0.0742 -0.03731,0.0213 -0.0587,0.0374 -0.08203,0.0547 -0.04667,0.0345 -0.09078,0.0722 -0.142578,0.11718 -0.103589,0.0899 -0.234872,0.21153 -0.398437,0.36719 -0.32713,0.31132 -0.779185,0.75541 -1.324215,1.30274 -1.09006,1.09465 -2.5555,2.60026 -4.13867,4.25781 -3.29507,3.44986 -4.95692,5.17261 -5.69922,5.69336 -0.14029,0.0984 -0.19379,0.1139 -0.24219,0.13281 -0.0138,-0.0456 -0.1217,-0.26964 -0.25,-0.69531 -0.0943,-0.31283 -0.2001,-0.62075 -0.29883,-0.87305 -0.0494,-0.12615 -0.0967,-0.23903 -0.14257,-0.33594 -0.0459,-0.0969 -0.0729,-0.16386 -0.16602,-0.27539 -0.18395,-0.22026 -0.33998,-0.23068 -0.50586,-0.26758 -0.16588,-0.0369 -0.35818,-0.0596 -0.60352,-0.0781 -0.49066,-0.0371 -1.19117,-0.0532 -2.17968,-0.0547 l -2.54102,-0.004 -0.75195,-0.64454 c -0.0639,-0.0549 -0.0958,-0.0919 -0.1543,-0.14453 0.15154,-0.0255 0.25729,-0.0441 0.44336,-0.0742 0.8001,-0.12931 1.89432,-0.29745 3.08789,-0.47265 l 4.3457,-0.63867 a 0.49741318,0.49741318 0 0 0 0.28711,-0.14844 l 4.25977,-4.47266 c 1.1739,-1.23297 2.24659,-2.38844 3.03125,-3.25976 0.39233,-0.43566 0.71317,-0.80087 0.94141,-1.07227 0.11411,-0.1357 0.2038,-0.24734 0.27343,-0.33984 0.0348,-0.0462 0.0654,-0.086 0.0937,-0.13086 0.0283,-0.0448 0.0668,-0.043 0.0977,-0.2461 0.0198,-0.12987 2.1e-4,-0.32403 -0.0977,-0.47656 -0.0979,-0.15253 -0.23446,-0.23854 -0.36132,-0.29492 -0.25373,-0.11275 -0.53285,-0.15277 -0.97071,-0.19727 -0.87571,-0.089 -2.36571,-0.1408 -4.96289,-0.20507 -2.15542,-0.0534 -4.41547,-0.14531 -4.88281,-0.19141 -0.47324,-0.0467 -0.64121,-0.0823 -0.73438,-0.13867 -0.0932,-0.0564 -0.24009,-0.22151 -0.54882,-0.64844 -0.10501,-0.1452 -0.16618,-0.25825 -0.24024,-0.38086 0.0666,-0.0167 0.10288,-0.0274 0.18164,-0.0469 0.45707,-0.1127 1.11297,-0.26839 1.91797,-0.45704 1.61001,-0.37729 3.81516,-0.88393 6.22461,-1.42578 l 8.765622,-1.9707 a 0.49741318,0.49741318 0 0 0 0.232422,-0.12305 l 1.195312,-1.13281 c 3.790791,-3.59271 7.254974,-5.78242 10.230469,-6.54297 1.27406,-0.32565 3.223955,-0.54715 4.77539,-0.60547 z m -109.535159,24.51758 c -3.13157,2.62162 -5.22031,6.48361 -5.71875,10.92774 -0.225,2.00618 0.005,6.63412 0.42774,8.57226 0.10147,0.46525 0.17414,0.7653 0.30468,1.02539 0.0653,0.13005 0.15397,0.26189 0.29493,0.36133 0.14096,0.0994 0.32001,0.14063 0.45703,0.14063 0.20432,0 0.41977,-0.11441 0.54687,-0.2461 0.1271,-0.13168 0.21066,-0.27828 0.29883,-0.46094 0.17635,-0.36531 0.36344,-0.89468 0.63672,-1.73046 0.84422,-2.58194 1.78473,-4.81522 2.88867,-6.86524 0.42747,-0.7938 0.96754,-1.6951 1.4668,-2.52148 -0.81814,3.64886 -0.89637,8.2239 -0.14453,13.14257 0.43274,2.83098 0.95801,5.20287 2.42773,10.95704 3.73057,14.60575 4.04252,19.77087 1.67188,27.38476 -3.04366,9.77542 -10.34463,19.9577 -21.60157,30.03125 -0.26684,0.2388 -0.46975,0.41613 -0.69531,0.61328 0.68247,-3.75965 1.49901,-10.27404 1.75977,-14.32422 1.06411,-16.52818 -1.66518,-30.62373 -7.8711,-40.25 -0.50671,-0.78598 -1.13683,-1.92576 -1.35156,-2.42578 -2.22932,-5.19112 -6.23155,-9.40856 -10.98828,-11.66211 5.89174,1.11652 11.82461,5.06716 16.26172,10.92578 0.25884,0.34178 0.51354,0.63423 0.74414,0.85547 0.1153,0.11063 0.22333,0.20194 0.33789,0.2793 0.11456,0.0774 0.21691,0.16797 0.4668,0.16797 0.16681,0 0.32406,-0.0356 0.47656,-0.12695 0.1525,-0.0914 0.33754,-0.28632 0.33203,-0.56641 a 0.49741318,0.49741318 0 0 0 0,-0.002 c -0.005,-0.23113 -0.0523,-0.28107 -0.10547,-0.4336 -0.0531,-0.15253 -0.12503,-0.33806 -0.21289,-0.55468 -0.17571,-0.43326 -0.41378,-0.98403 -0.67773,-1.57032 -0.52792,-1.17257 -1.15136,-2.47573 -1.57422,-3.24023 -3.11081,-5.62411 -6.95105,-9.11585 -11.54297,-10.38672 -2.30363,-0.63755 -5.56776,-0.4616 -8.10352,0.31641 4.16492,-3.78408 8.48254,-5.76596 13.84961,-6.30469 5.0596,-0.50787 11.5146,1.01996 16.625,3.96484 0.67462,0.38876 1.04405,0.60677 1.41797,0.69922 0.0935,0.0231 0.19241,0.041 0.31836,0.0254 0.12595,-0.0156 0.28477,-0.0833 0.38867,-0.19336 0.20781,-0.22009 0.19226,-0.43043 0.18946,-0.58593 -0.003,-0.18131 -0.0561,-0.24928 -0.0957,-0.32227 -0.0396,-0.073 -0.0822,-0.13696 -0.13281,-0.20508 -0.10123,-0.13623 -0.23175,-0.28828 -0.39062,-0.46094 -0.31776,-0.34531 -0.7508,-0.77246 -1.25,-1.24023 -0.99841,-0.93554 -2.25657,-2.02422 -3.34375,-2.85742 -0.41931,-0.32135 -0.80362,-0.63416 -1.07618,-0.87305 -0.0941,-0.0825 -0.15208,-0.13923 -0.21484,-0.19922 0.01,-0.0177 0.0123,-0.0258 0.0234,-0.0449 0.10057,-0.17223 0.25078,-0.40016 0.41601,-0.62695 2.889,-3.96541 6.98134,-7.08335 11.90039,-9.05078 0.0576,-0.023 0.10425,-0.0359 0.16211,-0.0586 z m 8.94727,1.98242 c -0.0415,0.61231 -0.051,0.99273 -0.13086,1.83399 -0.14153,1.49081 -0.32401,3.12756 -0.4707,4.13672 -0.41325,2.84268 -1.22894,6.45311 -2.1211,9.39062 -0.0507,0.16682 -0.086,0.27021 -0.13476,0.42774 -0.0763,-0.98487 -0.14395,-2.17353 -0.17188,-3.44922 -0.0769,-3.51602 0.0461,-4.62799 0.78711,-7.1211 0.21782,-0.73287 0.86067,-2.29049 1.5,-3.68554 0.26136,-0.57031 0.5095,-1.07172 0.74219,-1.53321 z m -72.65625,7.03711 c 0.0694,-0.0186 0.73484,0.091 2.14453,0.42383 3.526,0.83261 7.20446,2.61833 10.85156,5.28906 0.91411,0.66939 2.19155,1.71399 3.21485,2.59961 0.0448,0.0388 0.0675,0.0615 0.11132,0.0996 -0.65393,-0.25452 -1.33405,-0.52793 -1.95117,-0.71289 -1.42926,-0.42838 -2.00583,-0.49808 -4.42773,-0.51172 -3.13578,-0.0176 -4.2659,0.21616 -6.64258,1.35938 -3.42772,1.64877 -6.25293,4.64858 -7.98828,8.45312 -0.22831,0.50055 -0.3825,0.88454 -0.46094,1.20703 -0.0392,0.16125 -0.0678,0.30485 -0.0391,0.49219 0.0287,0.18735 0.21923,0.47 0.46094,0.53516 0.2417,0.0652 0.40251,-7.6e-4 0.55078,-0.0625 0.14826,-0.0618 0.29263,-0.1458 0.45508,-0.25391 0.32489,-0.21621 0.72049,-0.53021 1.21679,-0.95312 3.31075,-2.82118 7.27035,-4.71183 11.41211,-5.45508 0.82056,-0.14725 2.40887,-0.25919 3.91406,-0.29492 0.91324,-0.0217 1.43287,0.0353 2.11524,0.0684 -2.4918,0.96054 -4.63905,2.30025 -6.66211,4.25586 -5.17237,4.99991 -6.98598,12.05119 -5.03906,19.4746 0.16101,0.61394 0.32373,1.06985 0.53906,1.40235 0.10767,0.16625 0.21653,0.33852 0.50391,0.41992 0.14369,0.0407 0.33757,0.0229 0.47461,-0.0527 0.13703,-0.0756 0.21851,-0.1798 0.27539,-0.27539 0.0641,-0.10765 0.0645,-0.14425 0.0781,-0.19532 0.0136,-0.0511 0.0241,-0.10187 0.0352,-0.16015 0.0222,-0.11658 0.0444,-0.25902 0.0664,-0.42383 0.044,-0.32963 0.0877,-0.74967 0.12305,-1.18945 0.50352,-6.26685 3.19284,-12.05156 7.51367,-16.45508 -1.46227,2.67871 -2.06425,5.22982 -1.84961,8.16601 0.17781,2.43221 0.68802,4.12874 1.9336,6.44922 0.76204,1.41967 1.92554,3.0757 3.00976,4.39844 0.54211,0.66137 1.06249,1.23722 1.51367,1.66211 0.22559,0.21244 0.4323,0.3876 0.63086,0.52148 0.19856,0.13389 0.37089,0.25586 0.67188,0.25586 0.0748,0 0.1667,0.0765 0.45312,-0.0762 0.14322,-0.0763 0.27092,-0.27234 0.29688,-0.41211 0.0259,-0.13977 0.009,-0.23304 -0.01,-0.32617 -0.0739,-0.37252 -0.27489,-0.85133 -0.6914,-1.95508 -1.08258,-2.86883 -1.38898,-4.62146 -1.47852,-8.47265 -0.0687,-2.95111 0.0932,-4.49371 0.50586,-6.44141 0.30646,2.35142 0.89608,4.29385 2.16016,6.45312 1.39966,2.39087 3.8653,4.8198 6.71484,6.65235 0.75988,0.48868 2.0157,1.17577 3.14648,1.75195 0.5654,0.28809 1.09746,0.54621 1.51954,0.73633 0.21103,0.0951 0.3937,0.17279 0.54687,0.23047 0.15317,0.0577 0.21168,0.11328 0.45703,0.11328 0.20434,0 0.4751,-0.0287 0.67188,-0.28516 0.19678,-0.25646 0.14749,-0.55436 0.0742,-0.75976 -0.14655,-0.4108 -0.45408,-0.82535 -0.96485,-1.47071 -3.91206,-4.94289 -6.85365,-10.77721 -8.54883,-16.95703 -0.30107,-1.09754 -0.60098,-2.36243 -0.80859,-3.35937 -0.0685,-0.32918 -0.10724,-0.5625 -0.15234,-0.81641 0.0538,0.0381 0.0784,0.0492 0.13671,0.0918 0.56988,0.41585 1.35265,1.03812 2.22266,1.76367 1.74003,1.4511 3.83727,3.32066 5.35352,4.82617 3.3743,3.35041 5.20465,5.58556 6.08398,7.35547 1.91434,3.85322 3.01003,8.48015 3.11133,13.17383 0.0997,4.62217 -0.57428,8.88339 -2.35742,14.83984 -3.15839,10.55038 -8.23583,20.00326 -14.63867,27.27344 -1.00011,1.13555 -1.57626,1.77078 -1.88868,2.0625 -0.072,0.0673 -0.0614,0.0545 -0.10156,0.084 -0.0575,-0.0541 -0.11478,-0.10928 -0.19922,-0.18945 -0.2249,-0.21352 -0.53882,-0.51342 -0.91992,-0.8789 -0.7622,-0.73098 -1.79048,-1.72127 -2.89844,-2.79297 -4.44776,-4.30222 -6.75764,-6.98256 -9.68945,-11.23829 -7.41924,-10.76958 -11.67146,-22.47071 -12.88281,-35.44921 -0.32769,-3.5105 -0.34217,-9.78938 -0.0332,-13.08008 0.71629,-7.62891 2.64835,-15.24663 5.57422,-21.98828 0.17849,-0.41126 0.29322,-0.70944 0.37696,-0.86328 0.0837,-0.15385 0.0673,-0.1236 0.10156,-0.13282 z m 138.42773,19.73243 c -0.11943,-0.53841 -4.56931,3.65817 -1.30859,0.88281 -0.74582,0.79446 -2.04826,2.30797 -4.46484,5.13086 -19.04791,22.25051 -39.66097,43.71194 -56.01172,58.32031 -7.73619,6.91178 -16.08113,13.68009 -21.48633,17.42969 -0.3825,0.26534 -0.70323,0.51664 -0.94141,0.74023 -0.11909,0.1118 -0.21749,0.21444 -0.30078,0.32813 -0.0833,0.11368 -0.22018,0.22375 -0.1582,0.55468 0.0385,0.20551 0.1572,0.33458 0.26172,0.41993 0.10452,0.0853 0.21157,0.14018 0.33007,0.1914 0.23702,0.10244 0.52427,0.18057 0.87696,0.25 1.58755,0.31251 5.5169,0.78091 7.75976,0.93164 2.94272,0.19759 6.72993,0.19907 9.6875,0.004 17.93792,-1.18375 34.38767,-8.68654 46.78125,-21.33985 3.082,-3.14656 4.6162,-4.93981 6.91016,-8.08593 9.31592,-12.77661 14.12696,-28.31636 13.73633,-44.36328 -0.0494,-2.03112 -0.24146,-4.60599 -0.46875,-6.75586 -0.11365,-1.07494 -0.23513,-2.04267 -0.35547,-2.78711 -0.0602,-0.37222 -0.11981,-0.68833 -0.17969,-0.94141 -0.0599,-0.25308 -0.0821,-0.4112 -0.22851,-0.62891 -0.0619,-0.0921 -0.22256,-0.25351 -0.43946,-0.28124 z m -0.51172,1.89257 c 0.0779,0.42652 0.16887,0.97068 0.25977,1.57422 0.49705,3.3002 0.71541,12.69141 0.37109,16.08789 -0.91029,8.97944 -2.8656,16.2356 -6.41601,23.83399 -5.40326,11.5638 -13.6913,21.29294 -24.20313,28.41406 -10.41726,7.05706 -21.99786,11.05444 -34.89062,12.03906 -2.10033,0.16045 -7.28832,0.19215 -9.53711,0.0566 -1.29111,-0.0778 -5.4069,-0.52298 -6.9707,-0.75586 -0.37774,-0.0562 -0.57495,-0.11252 -0.82618,-0.16992 0.052,-0.0378 0.0798,-0.0583 0.13672,-0.0996 0.48918,-0.35518 1.15263,-0.83672 1.87305,-1.35742 17.72378,-12.81031 41.95467,-36.16556 67.83008,-65.35742 3.34102,-3.76925 10.33379,-11.83817 12.16015,-14.0332 0.0804,-0.0967 0.13756,-0.1484 0.21289,-0.23243 z"
         transform="translate(270.99833,-293.29108)" /><path
         style="display:inline;fill:#ffffff;stroke:#000000;stroke-width:1069.07;stroke-opacity:0;paint-order:markers fill stroke"
         d="m 95.17457,178.58603 c 0.72842,-2.58037 0.67482,-14.96163 -0.0817,-18.86534 -0.41616,-2.14755 -2.28093,-8.96094 -4.14393,-15.14084 l -3.38728,-11.23616 1.72388,-2.20867 c 2.93633,-3.76208 5.01179,-9.17786 5.25098,-13.70216 l 0.21388,-4.0454 0.75334,2.26288 c 1.14317,3.43384 1.17251,10.264 0.064,14.89392 -0.53581,2.23785 -0.75408,4.20296 -0.48504,4.36687 0.26902,0.16394 1.15231,-0.7924 1.96286,-2.12516 5.61212,-9.22806 5.82357,-17.14772 0.61223,-22.93088 -1.76166,-1.95495 -1.7703,-1.98954 -0.39093,-1.56387 6.07187,1.87372 12.18135,6.93375 15.01877,12.43891 1.0098,1.95921 2.30056,5.75452 2.86836,8.43404 0.56779,2.67954 1.22243,4.87188 1.45475,4.87188 1.57319,0 1.49833,-14.11899 -0.0976,-18.40365 -2.36189,-6.34116 -7.48121,-9.77075 -15.53642,-10.40831 l -4.64964,-0.36801 2.23969,-1.0023 c 6.28547,-2.81286 15.49801,-3.37436 24.57396,-1.49772 6.64727,1.37443 7.50219,1.40536 5.94497,0.21502 -1.62714,-1.24378 -6.71423,-3.456702 -11.64501,-5.065662 -5.59528,-1.82578 -14.37272,-1.93653 -18.0977,-0.22838 -1.34212,0.61544 -2.53969,1.119 -2.66128,1.119 -0.12159,0 -0.26917,-1.97292 -0.32794,-4.38428 -0.11744,-4.81909 -1.47415,-8.42124 -4.47442,-11.88 -2.5155,-2.89992 -3.42615,-2.44068 -1.98916,1.00309 1.70653,4.08966 2.67813,10.27176 2.30075,14.63921 l -0.32259,3.733432 -0.73655,-2.262882 c -1.60171,-4.92083 -4.74236,-8.56176 -8.8525,-10.26266 -3.68511,-1.525 -11.53271,-1.70066 -11.49935,-0.25739 0.006,0.2694 1.35781,0.92184 3.00351,1.44984 1.64571,0.52803 4.21983,1.72985 5.72029,2.67073 2.63573,1.65275 7.93609,6.87668 7.95844,7.843662 0.006,0.26027 -1.46857,-0.20725 -3.27687,-1.038942 -2.74008,-1.26024 -4.08893,-1.51421 -8.09666,-1.5244 -4.10873,-0.0106 -5.25667,0.21182 -7.88471,1.52688 -3.59763,1.800252 -8.44624,6.129422 -7.30643,6.523682 0.41341,0.143 2.20303,-0.39818 3.97694,-1.20259 3.89177,-1.76485 10.20921,-2.75524 13.63949,-2.13828 l 2.50254,0.45008 -1.96953,0.45302 c -2.91355,0.67016 -5.65892,2.23867 -7.6433,4.36682 -1.84164,1.97506 -4.51543,7.39999 -4.48561,9.10097 0.0221,1.25939 0.10903,1.27352 -3.47823,-0.5657 -4.45436,-2.28381 -10.59135,-2.50688 -14.45568,-0.52546 -2.93983,1.50735 -5.07641,3.36235 -7.60988,6.60688 l -1.54607,1.98001 0.29746,-2.54572 c 0.66857,-5.72187 4.68879,-12.60353 11.64727,-19.93733 2.58103,-2.720262 4.53073,-5.104312 4.33266,-5.297912 -0.5516,-0.53911 -7.2397,3.440672 -11.1351,6.626012 -6.36843,5.20761 -9.60528,10.28214 -10.18413,15.96607 l -0.28451,2.79366 -2.59511,-2.13728 c -3.33826,-2.74931 -5.5421,-3.64148 -10.02726,-4.05942 l -3.634,-0.33861 1.39126,-2.66957 c 2.39636,-4.59817 8.22703,-12.13977 12.64846,-16.360012 19.60196,-18.7099 48.32476,-24.75923 73.96003,-15.57673 19.34888,6.9307 35.08478,21.725122 43.77888,41.159582 l 2.07579,4.64011 -12.67438,12.72857 c -16.5804,16.65129 -42.36551,40.12057 -44.11825,40.15587 -0.26952,0.006 -0.32835,-0.56293 -0.13073,-1.26302 z"
         id="path18334" /><path
         style="fill:#ffffff;stroke:#000000;stroke-width:1069.07;stroke-opacity:0;paint-order:markers fill stroke"
         d="m 63.91655,199.84888 c 1.18001,-4.53285 1.54104,-10.85432 1.27091,-22.25284 -0.3739,-15.77768 -1.23423,-19.55842 -6.87429,-30.20959 -4.5095,-8.51612 -5.56762,-9.9876 -9.22181,-12.82425 -3.46847,-2.69248 -2.52545,-2.85406 2.42183,-0.415 2.45285,1.2093 5.06468,3.20228 7.88451,6.01633 2.31915,2.31442 4.36516,4.05601 4.54668,3.8702 0.67014,-0.68602 -3.99115,-8.93252 -6.56962,-11.62265 -3.61955,-3.77629 -7.47902,-5.39885 -11.88871,-4.99816 -3.24494,0.29485 -3.29052,0.2794 -2.34316,-0.79486 1.5933,-1.80671 7.56416,-4.46286 11.50633,-5.11861 4.63938,-0.77173 10.78264,0.34156 15.93795,2.88828 4.02162,1.98667 3.88634,1.95103 3.87496,1.02118 -0.005,-0.38894 -1.49325,-2.00477 -3.30775,-3.59076 l -3.29911,-2.88359 2.78649,-2.85242 c 2.48676,-2.54559 8.04706,-6.35249 9.29882,-6.36651 0.26095,-0.003 -0.17549,0.78893 -0.96987,1.75966 -2.05135,2.50677 -2.97953,4.58822 -3.56472,7.99396 -0.66188,3.85207 0.0983,10.60681 1.19374,10.60681 0.43513,0 0.78467,-0.28073 0.77674,-0.62379 -0.018,-0.77949 4.12111,-10.12481 4.48436,-10.12481 0.14634,0 0.18379,1.97295 0.0832,4.38431 -0.19741,4.73395 0.54719,9.27595 3.73283,22.76999 2.10809,8.92966 2.64034,15.83256 1.59315,20.66186 -0.89359,4.12094 -4.76656,12.39528 -8.00552,17.10323 -2.95644,4.29733 -12.71075,15.065 -14.55011,16.06171 -0.89712,0.48615 -1.02492,0.41251 -0.79787,-0.45968 z"
         id="path18336" /><path
         style="fill:#ffffff;stroke:#000000;stroke-width:1069.07;stroke-opacity:0;paint-order:markers fill stroke"
         d="m 32.25356,200.03072 c -2.8967,-2.98778 -6.63457,-7.41225 -8.30636,-9.83207 -13.88971,-20.10482 -17.09485,-44.45233 -8.86742,-67.36051 1.68031,-4.67863 1.69026,-4.69117 3.44133,-4.33747 3.73289,0.75398 9.86227,4.03172 14.24063,7.61526 0.24479,0.20037 -1.73312,0.25011 -4.39535,0.11054 -5.86291,-0.30734 -8.75307,0.62119 -12.01601,3.86043 -1.86831,1.85473 -4.44441,5.95723 -4.41943,7.03803 0.0171,0.74123 1.36188,0.17745 3.25449,-1.36443 3.5924,-2.92667 8.24898,-4.71184 12.97379,-4.97369 l 4.26833,-0.23657 -2.39365,1.24529 c -3.53069,1.83682 -7.22224,5.79885 -8.81336,9.45909 -1.10765,2.54805 -1.38469,4.11798 -1.31982,7.47893 0.1439,7.45529 1.58148,9.85205 2.4667,4.11249 0.70636,-4.57985 2.4094,-9.018 4.68696,-12.2143 2.11087,-2.96238 2.82523,-3.1877 1.87914,-0.59272 -1.09141,2.9936 -0.572,8.49352 1.10735,11.72535 1.7689,3.40421 5.30786,7.62924 5.89438,7.0371 0.22274,-0.2249 -0.0467,-1.89629 -0.59885,-3.71427 -1.04579,-3.44348 -1.42853,-11.17209 -0.67831,-13.69687 0.38342,-1.29035 0.42926,-1.23809 0.52311,0.59608 0.15113,2.95404 2.83147,7.63973 5.74045,10.0353 3.28093,2.70187 8.44878,5.46483 8.70096,4.65196 0.10475,-0.33769 -0.87627,-2.19623 -2.18005,-4.13007 -4.01515,-5.95559 -8.37854,-16.54183 -7.70845,-18.70189 0.31095,-1.00232 12.78677,11.49059 14.01074,14.02993 1.87942,3.89922 2.72658,7.78872 2.85661,13.11534 0.30642,12.5526 -6.92538,30.49606 -16.92669,41.99829 l -2.15448,2.47783 z"
         id="path18338" /><path
         style="fill:#ffffff;stroke:#000000;stroke-width:267.266;stroke-opacity:0;paint-order:markers fill stroke"
         d="m 86.46122,127.91108 c -0.0688,-0.64625 -0.13398,-2.79419 -0.1449,-4.77322 -0.0185,-3.3573 0.004,-3.69594 0.33252,-5.05706 0.19382,-0.80232 0.59119,-2.06629 0.88304,-2.80876 0.5969,-1.51855 2.13719,-4.77666 2.46217,-5.20814 0.20685,-0.27461 0.21345,-0.27096 0.22698,0.12546 0.0239,0.70118 -0.44098,5.29448 -0.75194,7.42905 -0.37661,2.58535 -1.27388,6.51677 -2.12335,9.30355 -0.36281,1.19025 -0.68212,2.16408 -0.70957,2.16408 -0.0275,0 -0.10618,-0.52872 -0.17495,-1.17496 z"
         id="path18340" /><path
         style="fill:#ffffff;stroke:#000000;stroke-width:755.944;stroke-opacity:0;paint-order:markers fill stroke"
         d="m 159.69612,113.11589 c -0.29108,-1.19909 -0.29364,-1.20004 -3.19769,-1.20004 -2.33037,0 -3.04387,-0.14817 -3.60021,-0.74761 -0.67087,-0.72284 -0.55151,-0.76946 3.60565,-1.40822 l 4.29948,-0.66063 4.17729,-4.49207 c 2.29752,-2.47066 4.18132,-4.689952 4.18624,-4.931782 0.009,-0.42185 -5.33995,-0.95346 -9.64155,-0.9583 -1.30543,-0.003 -2.04562,-0.22561 -2.55399,-0.77337 -0.69218,-0.74581 -0.66608,-0.78513 0.78965,-1.18965 0.82802,-0.23011 4.82256,-1.16462 8.87676,-2.07672 l 7.37126,-1.65838 2.55699,-2.37217 c 1.47689,-1.37015 3.91458,-3.05708 5.7709,-3.99354 2.82685,-1.42611 3.64076,-1.64664 6.75803,-1.831 l 3.54411,-0.2096 -1.00711,1.15088 c -0.55391,0.63299 -4.93851,5.63592 -9.74355,11.11764 l -8.73643,9.966772 -0.17235,-2.26637 c -0.0948,-1.2465 -0.30063,-2.26637 -0.45741,-2.26637 -0.15678,0 -2.91828,2.70013 -6.13667,6.0003 -3.21839,3.30018 -5.97457,6.0003 -6.12485,6.0003 -0.15028,0 -0.40433,-0.54004 -0.56455,-1.20007 z"
         id="path18342" /></g></g><text
     xml:space="preserve"
     style="font-style:normal;font-variant:normal;font-weight:normal;font-stretch:normal;font-size:80px;line-height:0px;font-family:'Maiandra GD';-inkscape-font-specification:'Maiandra GD';text-align:center;letter-spacing:0.537104px;text-anchor:middle;fill:#ffffff;stroke:#000000;stroke-width:499.999;stroke-opacity:0;paint-order:markers fill stroke"
     x="456.5856"
     y="100.28601"
     id="text1186-8-1-8-9"><tspan
       id="tspan1184-8-7-1-0"
       style="font-style:normal;font-variant:normal;font-weight:normal;font-stretch:normal;font-size:80px;font-family:Georgia;-inkscape-font-specification:Georgia;fill:#ffffff;stroke-width:500"
       x="456.85416"
       y="100.28601">Wycieczkolot</tspan></text></svg>
