<?xml version="1.0" encoding="UTF-8" standalone="no"?>
<!-- Created with Inkscape (http://www.inkscape.org/) -->

<svg
   width="83.327553mm"
   height="35.029354mm"
   viewBox="0 0 83.327553 35.029354"
   version="1.1"
   id="svg5"
   xml:space="preserve"
   sodipodi:docname="lalal2222.svg"
   inkscape:export-filename="lalal_cos2.svg"
   inkscape:export-xdpi="20"
   inkscape:export-ydpi="20"
   inkscape:version="1.2.2 (732a01da63, 2022-12-09)"
   inkscape:dataloss="true"
   xmlns:inkscape="http://www.inkscape.org/namespaces/inkscape"
   xmlns:sodipodi="http://sodipodi.sourceforge.net/DTD/sodipodi-0.dtd"
   xmlns="http://www.w3.org/2000/svg"
   xmlns:svg="http://www.w3.org/2000/svg"><sodipodi:namedview
     id="namedview7"
     pagecolor="#ffffff"
     bordercolor="#000000"
     borderopacity="0.25"
     inkscape:showpageshadow="2"
     inkscape:pageopacity="0.0"
     inkscape:pagecheckerboard="0"
     inkscape:deskcolor="#d1d1d1"
     inkscape:document-units="mm"
     showgrid="false"
     inkscape:zoom="0.66142459"
     inkscape:cx="288.77064"
     inkscape:cy="185.96224"
     inkscape:window-width="1366"
     inkscape:window-height="705"
     inkscape:window-x="-8"
     inkscape:window-y="-8"
     inkscape:window-maximized="1"
     inkscape:current-layer="layer1" /><defs
     id="defs2"><rect
       x="205.26074"
       y="376.31137"
       width="1071.2045"
       height="218.08954"
       id="rect246" /></defs><g
     inkscape:label="Warstwa 1"
     inkscape:groupmode="layer"
     id="layer1"
     transform="translate(-2.0440181,-2.7838122)"><g
       id="g2238"><g
         style="fill:#280b0b"
         id="g32"
         transform="matrix(-1.0630852,0,0,1.1084187,35.203775,2.7838123)"><g
           id="g19"
           style="fill:#280b0b">
	<g
   id="g17"
   style="fill:#280b0b">
		<path
   d="m 7.703,15.973 c 0,0 5.651,-5.625 5.651,-10.321 C 13.354,2.53 10.824,0 7.703,0 4.582,0 2.052,2.53 2.052,5.652 c 0,4.962 5.651,10.321 5.651,10.321 z M 4.758,5.652 c 0,-1.628 1.319,-2.946 2.945,-2.946 1.626,0 2.945,1.318 2.945,2.946 0,1.626 -1.319,2.944 -2.945,2.944 -1.626,0 -2.945,-1.318 -2.945,-2.944 z"
   id="path9"
   style="fill:#280b0b" />
		<path
   d="M 28.59,7.643 28.131,7.789 25.676,8.008 24.984,9.114 24.483,8.954 22.53,7.194 22.245,6.279 21.868,5.302 20.639,4.2 19.193,3.917 19.159,4.58 20.577,5.964 21.271,6.781 20.489,7.189 19.853,7.001 18.902,6.605 18.935,5.836 17.685,5.322 17.27,7.126 l -1.258,0.286 0.125,1.007 1.638,0.316 0.284,-1.609 1.353,0.201 0.629,0.368 h 1.011 l 0.69,1.384 1.833,1.859 -0.134,0.723 -1.478,-0.189 -2.553,1.289 -1.838,2.205 -0.239,0.976 h -0.661 l -1.229,-0.566 -1.194,0.566 0.297,1.261 0.52,-0.602 0.913,-0.027 -0.064,1.132 0.757,0.22 0.756,0.85 1.234,-0.347 1.41,0.222 1.636,0.441 0.819,0.095 1.384,1.573 2.675,1.574 -1.729,3.306 -1.826,0.849 -0.693,1.889 -2.643,1.765 -0.282,1.019 C 26.166,29.535 31.192,23.469 31.192,16.212 31.194,13.038 30.234,10.09 28.59,7.643 Z"
   id="path11"
   style="fill:#280b0b" />
		<path
   d="m 17.573,24.253 -1.12,-2.078 1.028,-2.146 -1.028,-0.311 -1.156,-1.159 -2.56,-0.573 -0.85,-1.779 v 1.057 H 11.512 L 9.887,15.061 C 9.094,16.01 8.492,16.616 8.417,16.69 L 7.72,17.384 7.007,16.707 C 6.824,16.531 3.549,13.392 1.93,9.577 c -0.966,2.009 -1.52,4.252 -1.52,6.63 0,8.502 6.891,15.396 15.393,15.396 0.654,0 1.296,-0.057 1.931,-0.135 l -0.161,-1.864 c 0,0 0.707,-2.77 0.707,-2.863 0,-0.095 -0.707,-2.488 -0.707,-2.488 z"
   id="path13"
   style="fill:#280b0b" />
		<path
   d="m 14.586,3.768 1.133,0.187 2.75,-0.258 0.756,-0.834 1.068,-0.714 1.512,0.228 0.551,-0.083 C 20.365,1.357 18.149,0.815 15.803,0.815 c -1.096,0 -2.16,0.128 -3.191,0.345 0.801,0.875 1.377,1.958 1.622,3.163 z M 16.453,2.343 18.026,1.478 19.035,2.06 17.573,3.173 16.179,3.314 15.55,2.907 Z"
   id="path15"
   style="fill:#280b0b" />
	</g>
</g></g><g
         aria-label="Wycieczkolot"
         transform="matrix(0.75547845,0,0,0.78769469,-119.48111,-282.8368)"
         id="text244"
         style="white-space:pre;shape-inside:url(#rect246);display:inline;fill:#2b0000;stroke-width:1.00007"
         inkscape:export-filename=".\text244.svg"
         inkscape:export-xdpi="20"
         inkscape:export-ydpi="20"><path
           d="m 211.92383,382.03781 1.42383,3.45703 2.15039,-5.79492 h -1.14258 v -0.29883 h 2.28515 v 0.29883 h -0.80859 l -2.90039,7.74023 h -0.20508 l -1.5,-3.63867 -1.46484,3.63867 h -0.2168 l -3.15234,-7.74023 h -0.87891 v -0.29883 h 8.19727 v 0.29883 h -0.84375 z m -0.94922,-2.33789 0.79101,1.92773 0.7793,-1.92773 z m -0.7793,5.86523 0.86133,-2.16797 -1.51172,-3.69726 h -1.74023 z"
           style="font-family:'Bodoni MT';-inkscape-font-specification:'Bodoni MT';fill:#000000"
           id="path2350" /><path
           d="m 217.96484,382.95187 1.64063,3.20508 1.42969,-3.20508 h -1.01954 v -0.29883 h 2.07422 v 0.29883 h -0.77929 l -2.36133,5.34961 q -0.50977,1.14844 -0.86719,1.60547 -0.35156,0.45703 -0.86133,0.45703 -0.3164,0 -0.49218,-0.20508 -0.16993,-0.19922 -0.16993,-0.45117 0,-0.23438 0.14649,-0.38086 0.15234,-0.14648 0.35742,-0.14648 0.28711,0 0.44531,0.26367 0.15821,0.26367 0.26367,0.26367 0.15821,0 0.33985,-0.28711 0.18164,-0.28711 0.55078,-1.11914 l 0.38086,-0.86133 -2.31445,-4.48828 h -0.69727 v -0.29883 h 2.81836 v 0.29883 z"
           style="font-family:'Bodoni MT';-inkscape-font-specification:'Bodoni MT';fill:#000000"
           id="path2352" /><path
           d="m 226.49609,385.66476 h 0.25196 q -0.17578,0.84961 -0.69141,1.29492 -0.51562,0.44532 -1.24219,0.44532 -0.99023,0 -1.67578,-0.73243 -0.68555,-0.73828 -0.68555,-1.69336 0,-0.98437 0.70313,-1.72851 0.70312,-0.74414 1.74609,-0.74414 0.74414,0 1.21289,0.38086 0.46875,0.375 0.46875,0.84375 0,0.23437 -0.16406,0.42187 -0.1582,0.1875 -0.41601,0.1875 -0.25196,0 -0.42188,-0.1582 -0.16406,-0.1582 -0.16406,-0.41602 0,-0.18164 0.14062,-0.35742 0.14649,-0.17578 0.14649,-0.24023 0,-0.15821 -0.2168,-0.27539 -0.2168,-0.12305 -0.5625,-0.12305 -0.60937,0 -0.9082,0.32812 -0.29297,0.32813 -0.29297,1.38868 0,1.06054 0.0527,1.57031 0.0586,0.50391 0.29883,0.79687 0.24024,0.28711 0.79102,0.28711 1.16015,0 1.6289,-1.47656 z"
           style="font-family:'Bodoni MT';-inkscape-font-specification:'Bodoni MT';fill:#000000"
           id="path2354" /><path
           d="m 228.17187,380.30929 q 0,-0.25781 0.1875,-0.44531 0.19336,-0.1875 0.45118,-0.1875 0.25781,0 0.44531,0.1875 0.19336,0.18164 0.19336,0.44531 0,0.27539 -0.1875,0.45703 -0.1875,0.18164 -0.45117,0.18164 -0.26368,0 -0.45118,-0.18164 -0.1875,-0.1875 -0.1875,-0.45703 z m 1.17774,2.25586 v 4.39453 h 0.76758 v 0.29883 h -2.72461 v -0.29883 h 0.82031 v -4.00781 h -0.82031 v -0.29883 h 0.83203 q 0.59766,0 1.125,-0.0879 z"
           style="font-family:'Bodoni MT';-inkscape-font-specification:'Bodoni MT';fill:#000000"
           id="path2356" /><path
           d="m 235.05078,384.60421 h -2.96484 q -0.041,1.73438 0.19336,2.13868 0.23437,0.39843 0.83789,0.39843 1.24218,0 1.68164,-1.4414 h 0.25195 q -0.19336,0.87304 -0.73242,1.28906 -0.53906,0.41602 -1.20117,0.41602 -0.94336,0 -1.64063,-0.69727 -0.69726,-0.70313 -0.69726,-1.76367 0,-1.03125 0.67968,-1.73438 0.68555,-0.70312 1.58789,-0.70312 0.78516,0 1.3711,0.55664 0.5918,0.55664 0.63281,1.54101 z m -2.96484,-0.26367 h 1.70508 q 0.0469,-0.41601 0.0469,-0.63281 0,-0.9375 -0.84961,-0.9375 -0.42187,0 -0.66211,0.22852 -0.24023,0.22265 -0.24023,0.60937 z"
           style="font-family:'Bodoni MT';-inkscape-font-specification:'Bodoni MT';fill:#000000"
           id="path2358" /><path
           d="m 239.99023,385.66476 h 0.25196 q -0.17578,0.84961 -0.69141,1.29492 -0.51562,0.44532 -1.24219,0.44532 -0.99023,0 -1.67578,-0.73243 -0.68554,-0.73828 -0.68554,-1.69336 0,-0.98437 0.70312,-1.72851 0.70313,-0.74414 1.74609,-0.74414 0.74414,0 1.21289,0.38086 0.46875,0.375 0.46875,0.84375 0,0.23437 -0.16406,0.42187 -0.1582,0.1875 -0.41601,0.1875 -0.25196,0 -0.42188,-0.1582 -0.16406,-0.1582 -0.16406,-0.41602 0,-0.18164 0.14062,-0.35742 0.14649,-0.17578 0.14649,-0.24023 0,-0.15821 -0.2168,-0.27539 -0.2168,-0.12305 -0.5625,-0.12305 -0.60937,0 -0.9082,0.32812 -0.29297,0.32813 -0.29297,1.38868 0,1.06054 0.0527,1.57031 0.0586,0.50391 0.29883,0.79687 0.24024,0.28711 0.79102,0.28711 1.16015,0 1.6289,-1.47656 z"
           style="font-family:'Bodoni MT';-inkscape-font-specification:'Bodoni MT';fill:#000000"
           id="path2360" /><path
           d="m 241.25,384.48703 v -1.83399 h 3.93164 v 0.25196 l -2.81836,4.08984 h 0.80274 q 0.72656,0 1.14257,-0.32813 0.42188,-0.33398 0.65039,-1.37695 h 0.22266 v 1.96875 h -4.11328 v -0.29883 l 2.80664,-4.04297 h -0.80273 q -0.39258,0 -0.66797,0.082 -0.27539,0.0762 -0.53321,0.42187 -0.25781,0.33984 -0.38086,1.06641 z"
           style="font-family:'Bodoni MT';-inkscape-font-specification:'Bodoni MT';fill:#000000"
           id="path2362" /><path
           d="m 246.82812,386.95968 v -7.25976 h -0.84375 v -0.29883 h 0.7793 q 0.58008,0 1.20117,-0.0879 v 7.64648 h 0.75586 v 0.29883 h -2.73633 v -0.29883 z m 3.19922,0 -1.92773,-2.26758 1.86914,-1.74023 h -0.98438 v -0.29883 h 2.47266 v 0.29883 h -1.11328 l -1.30078,1.20117 2.41406,2.80664 h 0.51563 v 0.29883 h -2.78321 v -0.29883 z"
           style="font-family:'Bodoni MT';-inkscape-font-specification:'Bodoni MT';fill:#000000"
           id="path2364" /><path
           d="m 252.46484,384.94406 q 0,-1.01367 0.69727,-1.72266 0.69726,-0.71484 1.72851,-0.71484 1.00782,0 1.70508,0.68554 0.70313,0.67969 0.70313,1.70508 0,1.04883 -0.72656,1.78125 -0.72657,0.72657 -1.7168,0.72657 -0.97266,0 -1.68164,-0.70899 -0.70899,-0.71484 -0.70899,-1.75195 z m 3.51563,0 q 0,-1.07813 -0.0762,-1.42383 -0.0703,-0.3457 -0.32813,-0.54492 -0.25195,-0.20508 -0.69726,-0.20508 -0.42188,0 -0.69727,0.21094 -0.26953,0.20508 -0.33398,0.55078 -0.0645,0.3457 -0.0645,1.42383 0,1.08398 0.0762,1.43554 0.082,0.35157 0.34571,0.55078 0.26953,0.19922 0.67383,0.19922 0.41015,0 0.67968,-0.19922 0.27539,-0.20507 0.34571,-0.5625 0.0762,-0.36328 0.0762,-1.43554 z"
           style="font-family:'Bodoni MT';-inkscape-font-specification:'Bodoni MT';fill:#000000"
           id="path2366" /><path
           d="m 258.89844,386.95968 v -7.25976 h -0.83789 v -0.29883 h 0.80273 q 0.80859,0 1.17774,-0.0879 v 7.64648 h 0.82617 v 0.29883 h -2.80664 v -0.29883 z"
           style="font-family:'Bodoni MT';-inkscape-font-specification:'Bodoni MT';fill:#000000"
           id="path2368" /><path
           d="m 261.59961,384.94406 q 0,-1.01367 0.69726,-1.72266 0.69727,-0.71484 1.72852,-0.71484 1.00781,0 1.70508,0.68554 0.70312,0.67969 0.70312,1.70508 0,1.04883 -0.72656,1.78125 -0.72656,0.72657 -1.7168,0.72657 -0.97265,0 -1.68164,-0.70899 -0.70898,-0.71484 -0.70898,-1.75195 z m 3.51562,0 q 0,-1.07813 -0.0762,-1.42383 -0.0703,-0.3457 -0.32812,-0.54492 -0.25196,-0.20508 -0.69727,-0.20508 -0.42187,0 -0.69726,0.21094 -0.26954,0.20508 -0.33399,0.55078 -0.0644,0.3457 -0.0644,1.42383 0,1.08398 0.0762,1.43554 0.082,0.35157 0.3457,0.55078 0.26953,0.19922 0.67383,0.19922 0.41016,0 0.67969,-0.19922 0.27539,-0.20507 0.3457,-0.5625 0.0762,-0.36328 0.0762,-1.43554 z"
           style="font-family:'Bodoni MT';-inkscape-font-specification:'Bodoni MT';fill:#000000"
           id="path2370" /><path
           d="m 269.42773,381.3171 v 1.33594 h 1.38868 v 0.29883 h -1.38868 v 2.90039 q 0,0.63867 0.082,0.87305 0.0879,0.23437 0.45703,0.23437 0.28125,0 0.53906,-0.1875 0.26367,-0.1875 0.39844,-0.58008 h 0.25195 q -0.26953,1.13672 -1.63477,1.13672 -0.57421,0 -0.84375,-0.20507 -0.26953,-0.21094 -0.33398,-0.51563 -0.0586,-0.30469 -0.0586,-0.82617 v -2.83008 h -1.04297 v -0.29883 h 1.04297 v -1.23633 q 0.58007,0 1.14257,-0.0996 z"
           style="font-family:'Bodoni MT';-inkscape-font-specification:'Bodoni MT';fill:#000000"
           id="path2372" /></g></g></g></svg>
