<?xml version="1.0" encoding="UTF-8" standalone="no"?>
<!-- Created with Inkscape (http://www.inkscape.org/) -->

<svg
   width="17.710312mm"
   height="47.36042mm"
   viewBox="0 0 17.710312 47.36042"
   version="1.1"
   id="svg5"
   xml:space="preserve"
   xmlns:inkscape="http://www.inkscape.org/namespaces/inkscape"
   xmlns:sodipodi="http://sodipodi.sourceforge.net/DTD/sodipodi-0.dtd"
   xmlns="http://www.w3.org/2000/svg"
   xmlns:svg="http://www.w3.org/2000/svg"><sodipodi:namedview
     id="namedview7"
     pagecolor="#ffffff"
     bordercolor="#000000"
     borderopacity="0.25"
     inkscape:showpageshadow="2"
     inkscape:pageopacity="0.0"
     inkscape:pagecheckerboard="0"
     inkscape:deskcolor="#d1d1d1"
     inkscape:document-units="mm"
     showgrid="false" /><defs
     id="defs2" /><g
     inkscape:label="Warstwa 1"
     inkscape:groupmode="layer"
     id="layer1"
     transform="translate(-90.019831,-67.899313)"><g
       id="g1604"
       transform="translate(-5.7905404,2.7623774)"
       inkscape:export-filename="navi.svg"
       inkscape:export-xdpi="96"
       inkscape:export-ydpi="96"><path
         style="fill:#fdfdfd;stroke-width:0.264583"
         d="m 97.625325,110.9302 -0.773398,-0.7734 v -6.63493 -6.634938 h 7.672913 7.67292 v 6.634938 6.63493 l -0.7734,0.7734 -0.77339,0.7734 h -6.12613 -6.126118 z m 8.029955,-3.85681 0.9819,-1.98438 h -2.11234 -2.11233 l 0.98189,1.98438 c 0.54005,1.09141 1.04874,1.98437 1.13044,1.98437 0.0817,0 0.5904,-0.89296 1.13044,-1.98437 z m 0,-5.02708 c -0.54004,-1.09141 -1.04874,-1.98438 -1.13044,-1.98438 -0.0817,0 -0.59039,0.89297 -1.13044,1.98438 l -0.98189,1.98437 h 2.11233 2.11234 z M 96.851927,88.949432 v -7.408334 h 7.672913 7.67292 v 7.408334 7.408333 h -7.67292 -7.672913 z m 10.715623,0 v -0.661459 l -2.98152,-0.07486 c -2.48158,-0.06231 -3.00762,-0.0068 -3.13716,0.330729 -0.0856,0.223073 -0.0856,0.588101 0,0.811173 0.12954,0.337578 0.65558,0.393035 3.13716,0.330729 l 2.98152,-0.07486 z M 96.851927,74.112413 v -6.89952 l 0.773398,-0.773397 0.773397,-0.773397 h 6.126118 6.12613 l 0.77339,0.773397 0.7734,0.773397 v 6.89952 6.899519 h -7.67292 -7.672913 z m 8.415023,1.159336 c 0.0799,-1.099548 0.0911,-1.110733 1.19063,-1.190625 0.98607,-0.07165 1.10997,-0.154483 1.10997,-0.742109 0,-0.587625 -0.1239,-0.67046 -1.10997,-0.742108 -1.09955,-0.07989 -1.11074,-0.09108 -1.19063,-1.190625 -0.0716,-0.986078 -0.15448,-1.109975 -0.74211,-1.109975 -0.58762,0 -0.67046,0.123897 -0.7421,1.109975 -0.0799,1.099548 -0.0911,1.110732 -1.19063,1.190625 -0.99055,0.07197 -1.11898,0.158932 -1.19369,0.808254 -0.0805,0.699747 -0.0375,0.727604 1.12447,0.727604 h 1.2082 v 1.208199 c 0,1.161943 0.0279,1.204994 0.72761,1.124479 0.64932,-0.07471 0.73628,-0.203141 0.80825,-1.193694 z"
         id="path1616" /><path
         style="fill:#e7e7e7;stroke-width:0.264583"
         d="m 97.347345,110.97599 c -0.329107,-0.41964 -0.319749,-0.429 0.09989,-0.0999 0.254661,0.19972 0.463021,0.40808 0.463021,0.46302 0,0.21776 -0.217272,0.0776 -0.562916,-0.36313 z m 13.792085,0.36313 c 0,-0.0549 0.20836,-0.2633 0.46302,-0.46302 0.41964,-0.32911 0.429,-0.31975 0.0999,0.0999 -0.34564,0.44073 -0.56291,0.58089 -0.56291,0.36313 z M 97.116511,66.624537 c 0,-0.05494 0.208359,-0.263301 0.46302,-0.463021 0.419644,-0.329107 0.429003,-0.319749 0.0999,0.09989 -0.345643,0.440729 -0.562915,0.580887 -0.562915,0.363126 z m 14.253749,-0.363126 c -0.32911,-0.419644 -0.31975,-0.429002 0.0999,-0.09989 0.25466,0.19972 0.46302,0.408079 0.46302,0.463021 0,0.217761 -0.21728,0.0776 -0.56292,-0.363126 z"
         id="path1614" /><path
         style="fill:#dadada;stroke-width:0.264583"
         d="m 95.814482,111.37287 c 0.01149,-0.61846 0.08587,-0.94589 0.165301,-0.72761 0.07943,0.21829 0.449491,0.7243 0.822363,1.12448 l 0.67795,0.72761 h -0.843251 c -0.818948,0 -0.842649,-0.0324 -0.822363,-1.12448 z m 16.532218,0.31336 0.7771,-0.81113 V 88.688791 66.50248 l -0.64143,-0.682774 -0.64143,-0.682774 h 0.83987 0.83987 v 23.680208 23.68021 h -0.97555 -0.97554 z M 96.851927,96.622348 c 0,-0.170307 2.734028,-0.264583 7.672913,-0.264583 4.93889,0 7.67292,0.09428 7.67292,0.264583 0,0.170307 -2.73403,0.264584 -7.67292,0.264584 -4.938885,0 -7.672913,-0.09428 -7.672913,-0.264584 z m 0,-15.345833 c 0,-0.170306 2.734028,-0.264583 7.672913,-0.264583 4.93889,0 7.67292,0.09428 7.67292,0.264583 0,0.170307 -2.73403,0.264583 -7.67292,0.264583 -4.938885,0 -7.672913,-0.09428 -7.672913,-0.264583 z M 95.814482,66.129119 c -0.01904,-0.904397 0.04172,-0.992187 0.686691,-0.992187 h 0.707579 l -0.541611,0.595312 c -0.297886,0.327422 -0.606897,0.773907 -0.686691,0.992188 -0.07979,0.218281 -0.154479,-0.04961 -0.165968,-0.595313 z"
         id="path1612" /><path
         style="fill:#c4c4c4;stroke-width:0.264583"
         d="M 96.702991,111.68623 95.925886,110.8751 V 88.688791 66.50248 l 0.641433,-0.682774 0.641433,-0.682774 h 7.316088 7.3161 l 0.64143,0.682774 0.64143,0.682774 V 88.688791 110.8751 l -0.7771,0.81113 -0.77711,0.81112 h -7.04475 -7.044744 z m 14.882409,-0.55792 0.61236,-0.57529 V 88.721926 66.890829 l -0.57529,-0.612365 c -0.57099,-0.607796 -0.62368,-0.612365 -7.06055,-0.612365 -6.294423,0 -6.503282,0.01693 -7.097627,0.575287 l -0.612366,0.575287 v 21.831097 21.8311 l 0.575288,0.61236 c 0.570994,0.6078 0.623679,0.61237 7.060555,0.61237 6.29442,0 6.50328,-0.0169 7.09763,-0.57529 z m -8.05963,-4.3195 -0.84807,-1.7198 h 1.84714 1.84715 l -0.84807,1.7198 c -0.46644,0.94588 -0.91602,1.71979 -0.99908,1.71979 -0.0831,0 -0.53263,-0.77391 -0.99907,-1.71979 z"
         id="path1610" /><path
         style="fill:#4a4a4a;stroke-width:0.264583"
         d="m 103.53266,89.550441 c 0.5457,-0.05708 1.43867,-0.05708 1.98437,0 0.5457,0.05708 0.0992,0.103786 -0.99219,0.103786 -1.0914,0 -1.53789,-0.0467 -0.99218,-0.103786 z m 0,-1.322916 c 0.5457,-0.05708 1.43867,-0.05708 1.98437,0 0.5457,0.05708 0.0992,0.103786 -0.99219,0.103786 -1.0914,0 -1.53789,-0.0467 -0.99218,-0.103786 z"
         id="path1608" /><path
         style="fill:#323232;stroke-width:0.264583"
         d="m 103.52577,102.31089 c 0.46644,-0.94589 0.91602,-1.71979 0.99907,-1.71979 0.0831,0 0.53264,0.7739 0.99908,1.71979 l 0.84807,1.71979 h -1.84715 -1.84714 z m -1.47005,-12.785546 c -0.54865,-0.106359 -0.58816,-1.100417 -0.0444,-1.117678 0.21828,-0.0069 1.34938,-0.0126 2.51354,-0.0126 1.16417,0 2.29526,0.0057 2.51355,0.0126 0.47627,0.01512 0.54047,1.065849 0.0661,1.08264 -2.49274,0.08825 -4.69547,0.103532 -5.04881,0.03504 z m 1.84134,-13.680438 c -0.0913,-0.237877 -0.16597,-0.720422 -0.16597,-1.072322 0,-0.520613 -0.13556,-0.640574 -0.7276,-0.64387 -0.97497,-0.0054 -1.46132,-0.34983 -1.34675,-0.953695 0.0687,-0.362072 0.36381,-0.519811 1.08437,-0.57958 0.88355,-0.07329 0.98998,-0.160303 0.98998,-0.809326 0,-0.399964 0.15689,-0.941762 0.34864,-1.203995 0.32669,-0.446775 0.37665,-0.448769 0.79375,-0.03167 0.24481,0.244814 0.44511,0.793799 0.44511,1.219967 0,0.680357 0.0945,0.774851 0.77485,0.774851 0.42617,0 0.97516,0.200302 1.21997,0.445116 0.4171,0.417098 0.41511,0.467059 -0.0317,0.79375 -0.26223,0.191749 -0.80403,0.348634 -1.20399,0.348634 -0.64935,0 -0.73601,0.106239 -0.80933,0.992188 -0.0644,0.777521 -0.20363,1.009525 -0.64375,1.072322 -0.33127,0.04726 -0.62972,-0.09727 -0.72761,-0.352369 z"
         id="path1606" /></g></g></svg>
